%TF.GenerationSoftware,KiCad,Pcbnew,9.0.2*%
%TF.CreationDate,2025-06-25T15:10:39+01:00*%
%TF.ProjectId,FootSw,466f6f74-5377-42e6-9b69-6361645f7063,V1.1*%
%TF.SameCoordinates,Original*%
%TF.FileFunction,Copper,L1,Top*%
%TF.FilePolarity,Positive*%
%FSLAX46Y46*%
G04 Gerber Fmt 4.6, Leading zero omitted, Abs format (unit mm)*
G04 Created by KiCad (PCBNEW 9.0.2) date 2025-06-25 15:10:39*
%MOMM*%
%LPD*%
G01*
G04 APERTURE LIST*
G04 Aperture macros list*
%AMRoundRect*
0 Rectangle with rounded corners*
0 $1 Rounding radius*
0 $2 $3 $4 $5 $6 $7 $8 $9 X,Y pos of 4 corners*
0 Add a 4 corners polygon primitive as box body*
4,1,4,$2,$3,$4,$5,$6,$7,$8,$9,$2,$3,0*
0 Add four circle primitives for the rounded corners*
1,1,$1+$1,$2,$3*
1,1,$1+$1,$4,$5*
1,1,$1+$1,$6,$7*
1,1,$1+$1,$8,$9*
0 Add four rect primitives between the rounded corners*
20,1,$1+$1,$2,$3,$4,$5,0*
20,1,$1+$1,$4,$5,$6,$7,0*
20,1,$1+$1,$6,$7,$8,$9,0*
20,1,$1+$1,$8,$9,$2,$3,0*%
G04 Aperture macros list end*
%TA.AperFunction,ComponentPad*%
%ADD10O,2.190000X1.740000*%
%TD*%
%TA.AperFunction,ComponentPad*%
%ADD11RoundRect,0.250000X0.845000X-0.620000X0.845000X0.620000X-0.845000X0.620000X-0.845000X-0.620000X0*%
%TD*%
%TA.AperFunction,ComponentPad*%
%ADD12C,1.600000*%
%TD*%
%TA.AperFunction,ComponentPad*%
%ADD13RoundRect,0.249999X0.850001X0.850001X-0.850001X0.850001X-0.850001X-0.850001X0.850001X-0.850001X0*%
%TD*%
%TA.AperFunction,ComponentPad*%
%ADD14C,2.200000*%
%TD*%
%TA.AperFunction,ComponentPad*%
%ADD15C,4.000000*%
%TD*%
%TA.AperFunction,ComponentPad*%
%ADD16RoundRect,0.250000X0.620000X0.845000X-0.620000X0.845000X-0.620000X-0.845000X0.620000X-0.845000X0*%
%TD*%
%TA.AperFunction,ComponentPad*%
%ADD17O,1.740000X2.190000*%
%TD*%
%TA.AperFunction,ComponentPad*%
%ADD18RoundRect,0.250000X-0.845000X0.620000X-0.845000X-0.620000X0.845000X-0.620000X0.845000X0.620000X0*%
%TD*%
%TA.AperFunction,Conductor*%
%ADD19C,0.700000*%
%TD*%
%TA.AperFunction,Conductor*%
%ADD20C,1.000000*%
%TD*%
G04 APERTURE END LIST*
D10*
%TO.P,J8,2,Pin_2*%
%TO.N,Net-(D2-K)*%
X59500000Y-64210000D03*
D11*
%TO.P,J8,1,Pin_1*%
%TO.N,GND*%
X59500000Y-66750000D03*
%TD*%
D12*
%TO.P,R1,1*%
%TO.N,Net-(R1-Pad1)*%
X67045000Y-65000000D03*
%TO.P,R1,2*%
%TO.N,Net-(J5-Pin_2)*%
X64505000Y-65000000D03*
%TD*%
D13*
%TO.P,D2,1,K*%
%TO.N,Net-(D2-K)*%
X67250000Y-52750000D03*
D14*
%TO.P,D2,2,A*%
%TO.N,Net-(D2-A)*%
X64710000Y-52750000D03*
%TD*%
D15*
%TO.P,SW1,A1,A*%
%TO.N,Net-(D2-K)*%
X74100000Y-54500000D03*
%TO.P,SW1,A2,B*%
%TO.N,Net-(R1-Pad1)*%
X74100000Y-59000000D03*
%TO.P,SW1,A3,C*%
%TO.N,unconnected-(SW1-C-PadA3)*%
X74100000Y-63500000D03*
%TO.P,SW1,B1,A*%
%TO.N,Net-(J7-Pin_2)*%
X79300000Y-54500000D03*
%TO.P,SW1,B2,B*%
%TO.N,Net-(J1-Pin_3)*%
X79300000Y-59000000D03*
%TO.P,SW1,B3,C*%
%TO.N,Net-(SW1-C-PadB3)*%
X79300000Y-63500000D03*
%TO.P,SW1,C1,A*%
%TO.N,Net-(J7-Pin_3)*%
X84500000Y-54500000D03*
%TO.P,SW1,C2,B*%
%TO.N,Net-(J2-Pin_2)*%
X84500000Y-59000000D03*
%TO.P,SW1,C3,C*%
%TO.N,Net-(SW1-C-PadB3)*%
X84500000Y-63500000D03*
%TD*%
D11*
%TO.P,J9,1,Pin_1*%
%TO.N,Net-(J1-Pin_2)*%
X59500000Y-60290000D03*
D10*
%TO.P,J9,2,Pin_2*%
%TO.N,Net-(D2-A)*%
X59500000Y-57750000D03*
%TD*%
D16*
%TO.P,J5,1,Pin_1*%
%TO.N,GND*%
X67500000Y-59500000D03*
D17*
%TO.P,J5,2,Pin_2*%
%TO.N,Net-(J5-Pin_2)*%
X64960000Y-59500000D03*
%TD*%
D11*
%TO.P,J4,1,Pin_1*%
%TO.N,Net-(J1-Pin_2)*%
X59500000Y-53800000D03*
D10*
%TO.P,J4,2,Pin_2*%
%TO.N,Net-(D2-K)*%
X59500000Y-51260000D03*
%TD*%
D18*
%TO.P,J1,1,Pin_1*%
%TO.N,GND*%
X100250000Y-60750000D03*
D10*
%TO.P,J1,2,Pin_2*%
%TO.N,Net-(J1-Pin_2)*%
X100250000Y-63290000D03*
%TO.P,J1,3,Pin_3*%
%TO.N,Net-(J1-Pin_3)*%
X100250000Y-65830000D03*
%TD*%
D18*
%TO.P,J7,1,Pin_1*%
%TO.N,GND*%
X100250000Y-51920000D03*
D10*
%TO.P,J7,2,Pin_2*%
%TO.N,Net-(J7-Pin_2)*%
X100250000Y-54460000D03*
%TO.P,J7,3,Pin_3*%
%TO.N,Net-(J7-Pin_3)*%
X100250000Y-57000000D03*
%TD*%
D16*
%TO.P,J2,1,Pin_1*%
%TO.N,GND*%
X93750000Y-59170000D03*
D17*
%TO.P,J2,2,Pin_2*%
%TO.N,Net-(J2-Pin_2)*%
X91210000Y-59170000D03*
%TD*%
D19*
%TO.N,Net-(J1-Pin_3)*%
X79300000Y-59000000D02*
X81949000Y-61649000D01*
X81949000Y-61649000D02*
X81949000Y-64849000D01*
X81949000Y-64849000D02*
X83300000Y-66200000D01*
X99880000Y-66200000D02*
X100250000Y-65830000D01*
X83300000Y-66200000D02*
X99880000Y-66200000D01*
D20*
%TO.N,Net-(J5-Pin_2)*%
X64960000Y-59500000D02*
X64960000Y-64545000D01*
X64960000Y-64545000D02*
X64505000Y-65000000D01*
%TO.N,Net-(J1-Pin_2)*%
X59500000Y-60290000D02*
X61296000Y-62086000D01*
X61296000Y-62086000D02*
X61296000Y-63913735D01*
X61296000Y-63913735D02*
X64881265Y-67499000D01*
X102750000Y-67499000D02*
X102750000Y-65250000D01*
X100790000Y-63290000D02*
X100250000Y-63290000D01*
X64881265Y-67499000D02*
X102750000Y-67499000D01*
X102750000Y-65250000D02*
X100790000Y-63290000D01*
%TD*%
M02*
