%TF.GenerationSoftware,KiCad,Pcbnew,9.0.2*%
%TF.CreationDate,2025-06-25T15:10:39+01:00*%
%TF.ProjectId,FootSw,466f6f74-5377-42e6-9b69-6361645f7063,V1.1*%
%TF.SameCoordinates,Original*%
%TF.FileFunction,Copper,L2,Bot*%
%TF.FilePolarity,Positive*%
%FSLAX46Y46*%
G04 Gerber Fmt 4.6, Leading zero omitted, Abs format (unit mm)*
G04 Created by KiCad (PCBNEW 9.0.2) date 2025-06-25 15:10:39*
%MOMM*%
%LPD*%
G01*
G04 APERTURE LIST*
G04 Aperture macros list*
%AMRoundRect*
0 Rectangle with rounded corners*
0 $1 Rounding radius*
0 $2 $3 $4 $5 $6 $7 $8 $9 X,Y pos of 4 corners*
0 Add a 4 corners polygon primitive as box body*
4,1,4,$2,$3,$4,$5,$6,$7,$8,$9,$2,$3,0*
0 Add four circle primitives for the rounded corners*
1,1,$1+$1,$2,$3*
1,1,$1+$1,$4,$5*
1,1,$1+$1,$6,$7*
1,1,$1+$1,$8,$9*
0 Add four rect primitives between the rounded corners*
20,1,$1+$1,$2,$3,$4,$5,0*
20,1,$1+$1,$4,$5,$6,$7,0*
20,1,$1+$1,$6,$7,$8,$9,0*
20,1,$1+$1,$8,$9,$2,$3,0*%
G04 Aperture macros list end*
%TA.AperFunction,ComponentPad*%
%ADD10O,2.190000X1.740000*%
%TD*%
%TA.AperFunction,ComponentPad*%
%ADD11RoundRect,0.250000X0.845000X-0.620000X0.845000X0.620000X-0.845000X0.620000X-0.845000X-0.620000X0*%
%TD*%
%TA.AperFunction,ComponentPad*%
%ADD12C,1.600000*%
%TD*%
%TA.AperFunction,ComponentPad*%
%ADD13RoundRect,0.249999X0.850001X0.850001X-0.850001X0.850001X-0.850001X-0.850001X0.850001X-0.850001X0*%
%TD*%
%TA.AperFunction,ComponentPad*%
%ADD14C,2.200000*%
%TD*%
%TA.AperFunction,ComponentPad*%
%ADD15C,4.000000*%
%TD*%
%TA.AperFunction,ComponentPad*%
%ADD16RoundRect,0.250000X0.620000X0.845000X-0.620000X0.845000X-0.620000X-0.845000X0.620000X-0.845000X0*%
%TD*%
%TA.AperFunction,ComponentPad*%
%ADD17O,1.740000X2.190000*%
%TD*%
%TA.AperFunction,ComponentPad*%
%ADD18RoundRect,0.250000X-0.845000X0.620000X-0.845000X-0.620000X0.845000X-0.620000X0.845000X0.620000X0*%
%TD*%
%TA.AperFunction,Conductor*%
%ADD19C,1.000000*%
%TD*%
G04 APERTURE END LIST*
D10*
%TO.P,J8,2,Pin_2*%
%TO.N,Net-(D2-K)*%
X59500000Y-64210000D03*
D11*
%TO.P,J8,1,Pin_1*%
%TO.N,GND*%
X59500000Y-66750000D03*
%TD*%
D12*
%TO.P,R1,1*%
%TO.N,Net-(R1-Pad1)*%
X67045000Y-65000000D03*
%TO.P,R1,2*%
%TO.N,Net-(J5-Pin_2)*%
X64505000Y-65000000D03*
%TD*%
D13*
%TO.P,D2,1,K*%
%TO.N,Net-(D2-K)*%
X67250000Y-52750000D03*
D14*
%TO.P,D2,2,A*%
%TO.N,Net-(D2-A)*%
X64710000Y-52750000D03*
%TD*%
D15*
%TO.P,SW1,A1,A*%
%TO.N,Net-(D2-K)*%
X74100000Y-54500000D03*
%TO.P,SW1,A2,B*%
%TO.N,Net-(R1-Pad1)*%
X74100000Y-59000000D03*
%TO.P,SW1,A3,C*%
%TO.N,unconnected-(SW1-C-PadA3)*%
X74100000Y-63500000D03*
%TO.P,SW1,B1,A*%
%TO.N,Net-(J7-Pin_2)*%
X79300000Y-54500000D03*
%TO.P,SW1,B2,B*%
%TO.N,Net-(J1-Pin_3)*%
X79300000Y-59000000D03*
%TO.P,SW1,B3,C*%
%TO.N,Net-(SW1-C-PadB3)*%
X79300000Y-63500000D03*
%TO.P,SW1,C1,A*%
%TO.N,Net-(J7-Pin_3)*%
X84500000Y-54500000D03*
%TO.P,SW1,C2,B*%
%TO.N,Net-(J2-Pin_2)*%
X84500000Y-59000000D03*
%TO.P,SW1,C3,C*%
%TO.N,Net-(SW1-C-PadB3)*%
X84500000Y-63500000D03*
%TD*%
D11*
%TO.P,J9,1,Pin_1*%
%TO.N,Net-(J1-Pin_2)*%
X59500000Y-60290000D03*
D10*
%TO.P,J9,2,Pin_2*%
%TO.N,Net-(D2-A)*%
X59500000Y-57750000D03*
%TD*%
D16*
%TO.P,J5,1,Pin_1*%
%TO.N,GND*%
X67500000Y-59500000D03*
D17*
%TO.P,J5,2,Pin_2*%
%TO.N,Net-(J5-Pin_2)*%
X64960000Y-59500000D03*
%TD*%
D11*
%TO.P,J4,1,Pin_1*%
%TO.N,Net-(J1-Pin_2)*%
X59500000Y-53800000D03*
D10*
%TO.P,J4,2,Pin_2*%
%TO.N,Net-(D2-K)*%
X59500000Y-51260000D03*
%TD*%
D18*
%TO.P,J1,1,Pin_1*%
%TO.N,GND*%
X100250000Y-60750000D03*
D10*
%TO.P,J1,2,Pin_2*%
%TO.N,Net-(J1-Pin_2)*%
X100250000Y-63290000D03*
%TO.P,J1,3,Pin_3*%
%TO.N,Net-(J1-Pin_3)*%
X100250000Y-65830000D03*
%TD*%
D18*
%TO.P,J7,1,Pin_1*%
%TO.N,GND*%
X100250000Y-51920000D03*
D10*
%TO.P,J7,2,Pin_2*%
%TO.N,Net-(J7-Pin_2)*%
X100250000Y-54460000D03*
%TO.P,J7,3,Pin_3*%
%TO.N,Net-(J7-Pin_3)*%
X100250000Y-57000000D03*
%TD*%
D16*
%TO.P,J2,1,Pin_1*%
%TO.N,GND*%
X93750000Y-59170000D03*
D17*
%TO.P,J2,2,Pin_2*%
%TO.N,Net-(J2-Pin_2)*%
X91210000Y-59170000D03*
%TD*%
D19*
%TO.N,Net-(J7-Pin_2)*%
X100250000Y-54460000D02*
X89960000Y-54460000D01*
X89960000Y-54460000D02*
X87091791Y-51591791D01*
X87091791Y-51591791D02*
X82208209Y-51591791D01*
X82208209Y-51591791D02*
X79300000Y-54500000D01*
%TO.N,GND*%
X59500000Y-66750000D02*
X62250000Y-64000000D01*
X62250000Y-62250000D02*
X66250000Y-62250000D01*
X62250000Y-64000000D02*
X62250000Y-62250000D01*
X66250000Y-62250000D02*
X67500000Y-61000000D01*
X67500000Y-61000000D02*
X67500000Y-59500000D01*
%TO.N,Net-(J1-Pin_2)*%
X59500000Y-60290000D02*
X58290000Y-60290000D01*
X57000000Y-55250000D02*
X58450000Y-53800000D01*
X58290000Y-60290000D02*
X57000000Y-59000000D01*
X57000000Y-59000000D02*
X57000000Y-55250000D01*
X58450000Y-53800000D02*
X59500000Y-53800000D01*
%TO.N,Net-(D2-K)*%
X59500000Y-51260000D02*
X57405000Y-51260000D01*
X57405000Y-51260000D02*
X55501000Y-53164000D01*
X55501000Y-53164000D02*
X55501000Y-60211000D01*
X55501000Y-60211000D02*
X59500000Y-64210000D01*
X59500000Y-51260000D02*
X60259000Y-50501000D01*
X60259000Y-50501000D02*
X66100999Y-50501000D01*
X66100999Y-50501000D02*
X67250000Y-51650001D01*
X67250000Y-51650001D02*
X67250000Y-52750000D01*
%TO.N,GND*%
X100250000Y-60750000D02*
X102250000Y-60750000D01*
X102250000Y-60750000D02*
X104499000Y-58501000D01*
X104499000Y-58501000D02*
X104499000Y-54749000D01*
X104499000Y-54749000D02*
X101670000Y-51920000D01*
X101670000Y-51920000D02*
X100250000Y-51920000D01*
X93750000Y-59170000D02*
X98670000Y-59170000D01*
X98670000Y-59170000D02*
X100250000Y-60750000D01*
X59500000Y-66750000D02*
X86170000Y-66750000D01*
X86170000Y-66750000D02*
X93750000Y-59170000D01*
%TO.N,Net-(R1-Pad1)*%
X67045000Y-65000000D02*
X68100000Y-65000000D01*
X68100000Y-65000000D02*
X74100000Y-59000000D01*
%TO.N,Net-(D2-K)*%
X67250000Y-52750000D02*
X72350000Y-52750000D01*
X72350000Y-52750000D02*
X74100000Y-54500000D01*
%TO.N,Net-(D2-A)*%
X59500000Y-57750000D02*
X59710000Y-57750000D01*
X59710000Y-57750000D02*
X64710000Y-52750000D01*
%TO.N,Net-(J7-Pin_3)*%
X100250000Y-57000000D02*
X87000000Y-57000000D01*
X87000000Y-57000000D02*
X84500000Y-54500000D01*
%TO.N,Net-(J2-Pin_2)*%
X91210000Y-59170000D02*
X84670000Y-59170000D01*
X84670000Y-59170000D02*
X84500000Y-59000000D01*
%TO.N,Net-(SW1-C-PadB3)*%
X84500000Y-63500000D02*
X79300000Y-63500000D01*
%TD*%
%TA.AperFunction,Conductor*%
%TO.N,GND*%
G36*
X55205703Y-61331069D02*
G01*
X55212181Y-61337101D01*
X57869766Y-63994686D01*
X57903251Y-64056009D01*
X57904430Y-64097241D01*
X57904882Y-64097277D01*
X57904551Y-64101472D01*
X57904560Y-64101752D01*
X57904500Y-64102128D01*
X57904500Y-64317866D01*
X57938245Y-64530922D01*
X57938246Y-64530926D01*
X58004908Y-64736089D01*
X58102843Y-64928299D01*
X58229641Y-65102821D01*
X58229643Y-65102823D01*
X58372003Y-65245183D01*
X58405488Y-65306506D01*
X58400504Y-65376198D01*
X58358632Y-65432131D01*
X58336728Y-65445245D01*
X58335885Y-65445637D01*
X58186654Y-65537684D01*
X58062684Y-65661654D01*
X57970643Y-65810875D01*
X57970641Y-65810880D01*
X57915494Y-65977302D01*
X57915493Y-65977309D01*
X57905000Y-66080013D01*
X57905000Y-66500000D01*
X58957291Y-66500000D01*
X58945548Y-66520339D01*
X58905000Y-66671667D01*
X58905000Y-66828333D01*
X58945548Y-66979661D01*
X58957291Y-67000000D01*
X57905001Y-67000000D01*
X57905001Y-67419986D01*
X57915494Y-67522697D01*
X57970641Y-67689119D01*
X57970643Y-67689124D01*
X58045449Y-67810403D01*
X58063889Y-67877796D01*
X58042966Y-67944459D01*
X57989324Y-67989229D01*
X57939910Y-67999500D01*
X55124500Y-67999500D01*
X55057461Y-67979815D01*
X55011706Y-67927011D01*
X55000500Y-67875500D01*
X55000500Y-61424782D01*
X55020185Y-61357743D01*
X55072989Y-61311988D01*
X55142147Y-61302044D01*
X55205703Y-61331069D01*
G37*
%TD.AperFunction*%
%TA.AperFunction,Conductor*%
G36*
X104942539Y-50020185D02*
G01*
X104988294Y-50072989D01*
X104999500Y-50124500D01*
X104999500Y-67875500D01*
X104979815Y-67942539D01*
X104927011Y-67988294D01*
X104875500Y-67999500D01*
X61060090Y-67999500D01*
X60993051Y-67979815D01*
X60947296Y-67927011D01*
X60937352Y-67857853D01*
X60954551Y-67810403D01*
X61029356Y-67689124D01*
X61029358Y-67689119D01*
X61084505Y-67522697D01*
X61084506Y-67522690D01*
X61094999Y-67419986D01*
X61095000Y-67419973D01*
X61095000Y-67000000D01*
X60042709Y-67000000D01*
X60054452Y-66979661D01*
X60095000Y-66828333D01*
X60095000Y-66671667D01*
X60054452Y-66520339D01*
X60042709Y-66500000D01*
X61094999Y-66500000D01*
X61094999Y-66080028D01*
X61094998Y-66080013D01*
X61084505Y-65977302D01*
X61029358Y-65810880D01*
X61029356Y-65810875D01*
X60937315Y-65661654D01*
X60813345Y-65537684D01*
X60664118Y-65445640D01*
X60663277Y-65445248D01*
X60662796Y-65444824D01*
X60657975Y-65441851D01*
X60658483Y-65441027D01*
X60610836Y-65399078D01*
X60591681Y-65331885D01*
X60611894Y-65265003D01*
X60627987Y-65245192D01*
X60770359Y-65102821D01*
X60897157Y-64928299D01*
X60995092Y-64736089D01*
X61061754Y-64530926D01*
X61092729Y-64335359D01*
X61095500Y-64317866D01*
X61095500Y-64102133D01*
X61061754Y-63889077D01*
X61061754Y-63889074D01*
X60995092Y-63683911D01*
X60897157Y-63491701D01*
X60770359Y-63317179D01*
X60617821Y-63164641D01*
X60443299Y-63037843D01*
X60251089Y-62939908D01*
X60045926Y-62873246D01*
X60045924Y-62873245D01*
X60045922Y-62873245D01*
X59832866Y-62839500D01*
X59832861Y-62839500D01*
X59595782Y-62839500D01*
X59528743Y-62819815D01*
X59508101Y-62803181D01*
X58577100Y-61872180D01*
X58543615Y-61810857D01*
X58548599Y-61741165D01*
X58590471Y-61685232D01*
X58655935Y-61660815D01*
X58664753Y-61660499D01*
X60395008Y-61660499D01*
X60497797Y-61649999D01*
X60664334Y-61594814D01*
X60813656Y-61502712D01*
X60937712Y-61378656D01*
X61029814Y-61229334D01*
X61084999Y-61062797D01*
X61095500Y-60960009D01*
X61095499Y-59619992D01*
X61091243Y-59578333D01*
X61084999Y-59517203D01*
X61084998Y-59517200D01*
X61029814Y-59350666D01*
X61025358Y-59343441D01*
X60953761Y-59227363D01*
X60953760Y-59227361D01*
X60937714Y-59201347D01*
X60937711Y-59201343D01*
X60903501Y-59167133D01*
X63589500Y-59167133D01*
X63589500Y-59832866D01*
X63612377Y-59977302D01*
X63623246Y-60045926D01*
X63682577Y-60228528D01*
X63689909Y-60251091D01*
X63708624Y-60287821D01*
X63787843Y-60443299D01*
X63914641Y-60617821D01*
X64067179Y-60770359D01*
X64241701Y-60897157D01*
X64433911Y-60995092D01*
X64639074Y-61061754D01*
X64718973Y-61074408D01*
X64852134Y-61095500D01*
X64852139Y-61095500D01*
X65067866Y-61095500D01*
X65186230Y-61076752D01*
X65280926Y-61061754D01*
X65486089Y-60995092D01*
X65678299Y-60897157D01*
X65852821Y-60770359D01*
X65995186Y-60627993D01*
X66056505Y-60594511D01*
X66126197Y-60599495D01*
X66182131Y-60641366D01*
X66195248Y-60663277D01*
X66195640Y-60664118D01*
X66287684Y-60813345D01*
X66411654Y-60937315D01*
X66560875Y-61029356D01*
X66560880Y-61029358D01*
X66727302Y-61084505D01*
X66727309Y-61084506D01*
X66830019Y-61094999D01*
X67249999Y-61094999D01*
X67250000Y-61094998D01*
X67250000Y-60042709D01*
X67270339Y-60054452D01*
X67421667Y-60095000D01*
X67578333Y-60095000D01*
X67729661Y-60054452D01*
X67750000Y-60042709D01*
X67750000Y-61094999D01*
X68169972Y-61094999D01*
X68169986Y-61094998D01*
X68272697Y-61084505D01*
X68439119Y-61029358D01*
X68439124Y-61029356D01*
X68588345Y-60937315D01*
X68712315Y-60813345D01*
X68804356Y-60664124D01*
X68804358Y-60664119D01*
X68859505Y-60497697D01*
X68859506Y-60497690D01*
X68869999Y-60394986D01*
X68870000Y-60394973D01*
X68870000Y-59750000D01*
X68042709Y-59750000D01*
X68054452Y-59729661D01*
X68095000Y-59578333D01*
X68095000Y-59421667D01*
X68054452Y-59270339D01*
X68042709Y-59250000D01*
X68869999Y-59250000D01*
X68869999Y-58605028D01*
X68869998Y-58605013D01*
X68859505Y-58502302D01*
X68804358Y-58335880D01*
X68804356Y-58335875D01*
X68712315Y-58186654D01*
X68588345Y-58062684D01*
X68439124Y-57970643D01*
X68439119Y-57970641D01*
X68272697Y-57915494D01*
X68272690Y-57915493D01*
X68169986Y-57905000D01*
X67750000Y-57905000D01*
X67750000Y-58957290D01*
X67729661Y-58945548D01*
X67578333Y-58905000D01*
X67421667Y-58905000D01*
X67270339Y-58945548D01*
X67250000Y-58957290D01*
X67250000Y-57905000D01*
X66830028Y-57905000D01*
X66830012Y-57905001D01*
X66727302Y-57915494D01*
X66560880Y-57970641D01*
X66560875Y-57970643D01*
X66411654Y-58062684D01*
X66287684Y-58186654D01*
X66195637Y-58335885D01*
X66195245Y-58336728D01*
X66194821Y-58337208D01*
X66191851Y-58342025D01*
X66191027Y-58341517D01*
X66149072Y-58389167D01*
X66081879Y-58408318D01*
X66014998Y-58388101D01*
X65995183Y-58372003D01*
X65852823Y-58229643D01*
X65852821Y-58229641D01*
X65678299Y-58102843D01*
X65486089Y-58004908D01*
X65280926Y-57938246D01*
X65280924Y-57938245D01*
X65280922Y-57938245D01*
X65067866Y-57904500D01*
X65067861Y-57904500D01*
X64852139Y-57904500D01*
X64852134Y-57904500D01*
X64639077Y-57938245D01*
X64433908Y-58004909D01*
X64241700Y-58102843D01*
X64142129Y-58175186D01*
X64067179Y-58229641D01*
X64067177Y-58229643D01*
X64067176Y-58229643D01*
X63914643Y-58382176D01*
X63914643Y-58382177D01*
X63914641Y-58382179D01*
X63909564Y-58389167D01*
X63787843Y-58556700D01*
X63689909Y-58748908D01*
X63623245Y-58954077D01*
X63589500Y-59167133D01*
X60903501Y-59167133D01*
X60813657Y-59077289D01*
X60813656Y-59077288D01*
X60664334Y-58985186D01*
X60664326Y-58985181D01*
X60663645Y-58984864D01*
X60663256Y-58984521D01*
X60658187Y-58981395D01*
X60658721Y-58980528D01*
X60611208Y-58938688D01*
X60592060Y-58871494D01*
X60612280Y-58804614D01*
X60628366Y-58784813D01*
X60770359Y-58642821D01*
X60897157Y-58468299D01*
X60995092Y-58276089D01*
X61061754Y-58070926D01*
X61077637Y-57970643D01*
X61095500Y-57857866D01*
X61095500Y-57830781D01*
X61115185Y-57763742D01*
X61131814Y-57743105D01*
X64488349Y-54386569D01*
X64549670Y-54353086D01*
X64579166Y-54351086D01*
X64579166Y-54350500D01*
X64835961Y-54350500D01*
X64835962Y-54350500D01*
X65084785Y-54311090D01*
X65324379Y-54233241D01*
X65548845Y-54118870D01*
X65641936Y-54051234D01*
X65707742Y-54027754D01*
X65775796Y-54043579D01*
X65802503Y-54063871D01*
X65807288Y-54068656D01*
X65931344Y-54192712D01*
X66080665Y-54284814D01*
X66247202Y-54339999D01*
X66349990Y-54350500D01*
X66349995Y-54350500D01*
X68150005Y-54350500D01*
X68150010Y-54350500D01*
X68252798Y-54339999D01*
X68419335Y-54284814D01*
X68568656Y-54192712D01*
X68692712Y-54068656D01*
X68784814Y-53919335D01*
X68812596Y-53835494D01*
X68852368Y-53778051D01*
X68916883Y-53751228D01*
X68930301Y-53750500D01*
X71550772Y-53750500D01*
X71617811Y-53770185D01*
X71663566Y-53822989D01*
X71673510Y-53892147D01*
X71671663Y-53902092D01*
X71630945Y-54080487D01*
X71630942Y-54080505D01*
X71599500Y-54359568D01*
X71599500Y-54640431D01*
X71630942Y-54919494D01*
X71630945Y-54919512D01*
X71693439Y-55193317D01*
X71693443Y-55193329D01*
X71786200Y-55458411D01*
X71908053Y-55711442D01*
X71935691Y-55755427D01*
X72057477Y-55949248D01*
X72232584Y-56168825D01*
X72431175Y-56367416D01*
X72650752Y-56542523D01*
X72781727Y-56624820D01*
X72813852Y-56645006D01*
X72860143Y-56697341D01*
X72870791Y-56766394D01*
X72842416Y-56830243D01*
X72813852Y-56854994D01*
X72650753Y-56957476D01*
X72431175Y-57132583D01*
X72232583Y-57331175D01*
X72057476Y-57550753D01*
X71908053Y-57788557D01*
X71786200Y-58041588D01*
X71693443Y-58306670D01*
X71693439Y-58306682D01*
X71630945Y-58580487D01*
X71630942Y-58580505D01*
X71599500Y-58859568D01*
X71599500Y-59140431D01*
X71630942Y-59419494D01*
X71630945Y-59419512D01*
X71693439Y-59693317D01*
X71693440Y-59693319D01*
X71745034Y-59840769D01*
X71748595Y-59910548D01*
X71715673Y-59969404D01*
X67837187Y-63847891D01*
X67775864Y-63881376D01*
X67706172Y-63876392D01*
X67693211Y-63870695D01*
X67544223Y-63794781D01*
X67349534Y-63731522D01*
X67174995Y-63703878D01*
X67147352Y-63699500D01*
X66942648Y-63699500D01*
X66918329Y-63703351D01*
X66740465Y-63731522D01*
X66545776Y-63794781D01*
X66363386Y-63887715D01*
X66197786Y-64008028D01*
X66053028Y-64152786D01*
X65932715Y-64318386D01*
X65885485Y-64411080D01*
X65837510Y-64461876D01*
X65769689Y-64478671D01*
X65703554Y-64456134D01*
X65664515Y-64411080D01*
X65663883Y-64409840D01*
X65617287Y-64318390D01*
X65609556Y-64307749D01*
X65496971Y-64152786D01*
X65352213Y-64008028D01*
X65186613Y-63887715D01*
X65186612Y-63887714D01*
X65186610Y-63887713D01*
X65108455Y-63847891D01*
X65004223Y-63794781D01*
X64809534Y-63731522D01*
X64634995Y-63703878D01*
X64607352Y-63699500D01*
X64402648Y-63699500D01*
X64378329Y-63703351D01*
X64200465Y-63731522D01*
X64005776Y-63794781D01*
X63823386Y-63887715D01*
X63657786Y-64008028D01*
X63513028Y-64152786D01*
X63392715Y-64318386D01*
X63299781Y-64500776D01*
X63236522Y-64695465D01*
X63204500Y-64897648D01*
X63204500Y-65102352D01*
X63204575Y-65102823D01*
X63236522Y-65304534D01*
X63299781Y-65499223D01*
X63363691Y-65624653D01*
X63370381Y-65637782D01*
X63392715Y-65681613D01*
X63513028Y-65847213D01*
X63657786Y-65991971D01*
X63778968Y-66080013D01*
X63823390Y-66112287D01*
X63907219Y-66155000D01*
X64005776Y-66205218D01*
X64005778Y-66205218D01*
X64005781Y-66205220D01*
X64110137Y-66239127D01*
X64200465Y-66268477D01*
X64234591Y-66273882D01*
X64402648Y-66300500D01*
X64402649Y-66300500D01*
X64607351Y-66300500D01*
X64607352Y-66300500D01*
X64809534Y-66268477D01*
X65004219Y-66205220D01*
X65186610Y-66112287D01*
X65307877Y-66024182D01*
X65352213Y-65991971D01*
X65352215Y-65991968D01*
X65352219Y-65991966D01*
X65496966Y-65847219D01*
X65496968Y-65847215D01*
X65496971Y-65847213D01*
X65601913Y-65702770D01*
X65617287Y-65681610D01*
X65664516Y-65588917D01*
X65712489Y-65538123D01*
X65780310Y-65521328D01*
X65846445Y-65543865D01*
X65885483Y-65588917D01*
X65922545Y-65661654D01*
X65932715Y-65681614D01*
X66053028Y-65847213D01*
X66197786Y-65991971D01*
X66318968Y-66080013D01*
X66363390Y-66112287D01*
X66447219Y-66155000D01*
X66545776Y-66205218D01*
X66545778Y-66205218D01*
X66545781Y-66205220D01*
X66650137Y-66239127D01*
X66740465Y-66268477D01*
X66774591Y-66273882D01*
X66942648Y-66300500D01*
X66942649Y-66300500D01*
X67147351Y-66300500D01*
X67147352Y-66300500D01*
X67349534Y-66268477D01*
X67544219Y-66205220D01*
X67726610Y-66112287D01*
X67847877Y-66024181D01*
X67913683Y-66000702D01*
X67920762Y-66000500D01*
X68198542Y-66000500D01*
X68217672Y-65996694D01*
X68295188Y-65981275D01*
X68391836Y-65962051D01*
X68450235Y-65937861D01*
X68573914Y-65886632D01*
X68737782Y-65777139D01*
X68877139Y-65637782D01*
X68877139Y-65637780D01*
X68887347Y-65627573D01*
X68887348Y-65627570D01*
X71405321Y-63109597D01*
X71466643Y-63076114D01*
X71536335Y-63081098D01*
X71592268Y-63122970D01*
X71616685Y-63188434D01*
X71616221Y-63211163D01*
X71599500Y-63359568D01*
X71599500Y-63640431D01*
X71630942Y-63919494D01*
X71630945Y-63919512D01*
X71693439Y-64193317D01*
X71693443Y-64193329D01*
X71786200Y-64458411D01*
X71908053Y-64711442D01*
X71908055Y-64711445D01*
X72057477Y-64949248D01*
X72232584Y-65168825D01*
X72431175Y-65367416D01*
X72650752Y-65542523D01*
X72888555Y-65691945D01*
X73141592Y-65813801D01*
X73340680Y-65883465D01*
X73406670Y-65906556D01*
X73406682Y-65906560D01*
X73680491Y-65969055D01*
X73680497Y-65969055D01*
X73680505Y-65969057D01*
X73866547Y-65990018D01*
X73959569Y-66000499D01*
X73959572Y-66000500D01*
X73959575Y-66000500D01*
X74240428Y-66000500D01*
X74240429Y-66000499D01*
X74411053Y-65981275D01*
X74519494Y-65969057D01*
X74519499Y-65969056D01*
X74519509Y-65969055D01*
X74793318Y-65906560D01*
X75058408Y-65813801D01*
X75311445Y-65691945D01*
X75549248Y-65542523D01*
X75768825Y-65367416D01*
X75967416Y-65168825D01*
X76142523Y-64949248D01*
X76291945Y-64711445D01*
X76413801Y-64458408D01*
X76506560Y-64193318D01*
X76569055Y-63919509D01*
X76572484Y-63889077D01*
X76576780Y-63850952D01*
X76603846Y-63786538D01*
X76661441Y-63746982D01*
X76731278Y-63744845D01*
X76791185Y-63780803D01*
X76822140Y-63843441D01*
X76823220Y-63850952D01*
X76830942Y-63919494D01*
X76830945Y-63919512D01*
X76893439Y-64193317D01*
X76893443Y-64193329D01*
X76986200Y-64458411D01*
X77108053Y-64711442D01*
X77108055Y-64711445D01*
X77257477Y-64949248D01*
X77432584Y-65168825D01*
X77631175Y-65367416D01*
X77850752Y-65542523D01*
X78088555Y-65691945D01*
X78341592Y-65813801D01*
X78540680Y-65883465D01*
X78606670Y-65906556D01*
X78606682Y-65906560D01*
X78880491Y-65969055D01*
X78880497Y-65969055D01*
X78880505Y-65969057D01*
X79066547Y-65990018D01*
X79159569Y-66000499D01*
X79159572Y-66000500D01*
X79159575Y-66000500D01*
X79440428Y-66000500D01*
X79440429Y-66000499D01*
X79611053Y-65981275D01*
X79719494Y-65969057D01*
X79719499Y-65969056D01*
X79719509Y-65969055D01*
X79993318Y-65906560D01*
X80258408Y-65813801D01*
X80511445Y-65691945D01*
X80749248Y-65542523D01*
X80968825Y-65367416D01*
X81167416Y-65168825D01*
X81342523Y-64949248D01*
X81491945Y-64711445D01*
X81516567Y-64660318D01*
X81559725Y-64570699D01*
X81606547Y-64518839D01*
X81671445Y-64500500D01*
X82128555Y-64500500D01*
X82195594Y-64520185D01*
X82240275Y-64570699D01*
X82308051Y-64711439D01*
X82308055Y-64711445D01*
X82457477Y-64949248D01*
X82632584Y-65168825D01*
X82831175Y-65367416D01*
X83050752Y-65542523D01*
X83288555Y-65691945D01*
X83541592Y-65813801D01*
X83740680Y-65883465D01*
X83806670Y-65906556D01*
X83806682Y-65906560D01*
X84080491Y-65969055D01*
X84080497Y-65969055D01*
X84080505Y-65969057D01*
X84266547Y-65990018D01*
X84359569Y-66000499D01*
X84359572Y-66000500D01*
X84359575Y-66000500D01*
X84640428Y-66000500D01*
X84640429Y-66000499D01*
X84811053Y-65981275D01*
X84919494Y-65969057D01*
X84919499Y-65969056D01*
X84919509Y-65969055D01*
X85193318Y-65906560D01*
X85458408Y-65813801D01*
X85711445Y-65691945D01*
X85949248Y-65542523D01*
X86168825Y-65367416D01*
X86367416Y-65168825D01*
X86542523Y-64949248D01*
X86691945Y-64711445D01*
X86813801Y-64458408D01*
X86906560Y-64193318D01*
X86969055Y-63919509D01*
X86972638Y-63887715D01*
X86995600Y-63683911D01*
X87000500Y-63640425D01*
X87000500Y-63359575D01*
X86988494Y-63253017D01*
X86981524Y-63191150D01*
X86980508Y-63182133D01*
X98654500Y-63182133D01*
X98654500Y-63397866D01*
X98688245Y-63610922D01*
X98688246Y-63610926D01*
X98754908Y-63816089D01*
X98852843Y-64008299D01*
X98979641Y-64182821D01*
X99132179Y-64335359D01*
X99236400Y-64411080D01*
X99303294Y-64459682D01*
X99345959Y-64515012D01*
X99351938Y-64584626D01*
X99319332Y-64646421D01*
X99303294Y-64660318D01*
X99241684Y-64705081D01*
X99132179Y-64784641D01*
X99132177Y-64784643D01*
X99132176Y-64784643D01*
X98979643Y-64937176D01*
X98979643Y-64937177D01*
X98979641Y-64937179D01*
X98925186Y-65012129D01*
X98852843Y-65111700D01*
X98754909Y-65303908D01*
X98688245Y-65509077D01*
X98654500Y-65722133D01*
X98654500Y-65937866D01*
X98682126Y-66112287D01*
X98688246Y-66150926D01*
X98754908Y-66356089D01*
X98852843Y-66548299D01*
X98979641Y-66722821D01*
X99132179Y-66875359D01*
X99306701Y-67002157D01*
X99498911Y-67100092D01*
X99704074Y-67166754D01*
X99783973Y-67179408D01*
X99917134Y-67200500D01*
X99917139Y-67200500D01*
X100582866Y-67200500D01*
X100701230Y-67181752D01*
X100795926Y-67166754D01*
X101001089Y-67100092D01*
X101193299Y-67002157D01*
X101367821Y-66875359D01*
X101520359Y-66722821D01*
X101647157Y-66548299D01*
X101745092Y-66356089D01*
X101811754Y-66150926D01*
X101835579Y-66000500D01*
X101845500Y-65937866D01*
X101845500Y-65722133D01*
X101816285Y-65537684D01*
X101811754Y-65509074D01*
X101745092Y-65303911D01*
X101647157Y-65111701D01*
X101520359Y-64937179D01*
X101367821Y-64784641D01*
X101196704Y-64660317D01*
X101154040Y-64604988D01*
X101148061Y-64535374D01*
X101180667Y-64473580D01*
X101196702Y-64459684D01*
X101367821Y-64335359D01*
X101520359Y-64182821D01*
X101647157Y-64008299D01*
X101745092Y-63816089D01*
X101811754Y-63610926D01*
X101830637Y-63491701D01*
X101845500Y-63397866D01*
X101845500Y-63182133D01*
X101811754Y-62969077D01*
X101811754Y-62969074D01*
X101745092Y-62763911D01*
X101647157Y-62571701D01*
X101520359Y-62397179D01*
X101377996Y-62254816D01*
X101344511Y-62193493D01*
X101349495Y-62123801D01*
X101391367Y-62067868D01*
X101413289Y-62054745D01*
X101414127Y-62054354D01*
X101563345Y-61962315D01*
X101687315Y-61838345D01*
X101779356Y-61689124D01*
X101779358Y-61689119D01*
X101834505Y-61522697D01*
X101834506Y-61522690D01*
X101844999Y-61419986D01*
X101845000Y-61419973D01*
X101845000Y-61000000D01*
X100792709Y-61000000D01*
X100804452Y-60979661D01*
X100845000Y-60828333D01*
X100845000Y-60671667D01*
X100804452Y-60520339D01*
X100792709Y-60500000D01*
X101844999Y-60500000D01*
X101844999Y-60080028D01*
X101844998Y-60080013D01*
X101834505Y-59977302D01*
X101779358Y-59810880D01*
X101779356Y-59810875D01*
X101687315Y-59661654D01*
X101563345Y-59537684D01*
X101414124Y-59445643D01*
X101414119Y-59445641D01*
X101247697Y-59390494D01*
X101247690Y-59390493D01*
X101144986Y-59380000D01*
X100500000Y-59380000D01*
X100500000Y-60207290D01*
X100479661Y-60195548D01*
X100328333Y-60155000D01*
X100171667Y-60155000D01*
X100020339Y-60195548D01*
X100000000Y-60207290D01*
X100000000Y-59380000D01*
X99355028Y-59380000D01*
X99355012Y-59380001D01*
X99252302Y-59390494D01*
X99085880Y-59445641D01*
X99085875Y-59445643D01*
X98936654Y-59537684D01*
X98812684Y-59661654D01*
X98720643Y-59810875D01*
X98720641Y-59810880D01*
X98665494Y-59977302D01*
X98665493Y-59977309D01*
X98655000Y-60080013D01*
X98655000Y-60500000D01*
X99707291Y-60500000D01*
X99695548Y-60520339D01*
X99655000Y-60671667D01*
X99655000Y-60828333D01*
X99695548Y-60979661D01*
X99707291Y-61000000D01*
X98655001Y-61000000D01*
X98655001Y-61419986D01*
X98665494Y-61522697D01*
X98720641Y-61689119D01*
X98720643Y-61689124D01*
X98812684Y-61838345D01*
X98936654Y-61962315D01*
X99085876Y-62054356D01*
X99086716Y-62054748D01*
X99087195Y-62055170D01*
X99092025Y-62058149D01*
X99091516Y-62058973D01*
X99139160Y-62100915D01*
X99158318Y-62168107D01*
X99138109Y-62234990D01*
X99122004Y-62254816D01*
X98979640Y-62397180D01*
X98852843Y-62571700D01*
X98754909Y-62763908D01*
X98688245Y-62969077D01*
X98654500Y-63182133D01*
X86980508Y-63182133D01*
X86969056Y-63080503D01*
X86969055Y-63080491D01*
X86906560Y-62806682D01*
X86813801Y-62541592D01*
X86691945Y-62288555D01*
X86542523Y-62050752D01*
X86367416Y-61831175D01*
X86168825Y-61632584D01*
X85949248Y-61457477D01*
X85786146Y-61354992D01*
X85739856Y-61302659D01*
X85729208Y-61233606D01*
X85757583Y-61169757D01*
X85786145Y-61145007D01*
X85949248Y-61042523D01*
X86168825Y-60867416D01*
X86367416Y-60668825D01*
X86542523Y-60449248D01*
X86681211Y-60228527D01*
X86733546Y-60182237D01*
X86786205Y-60170500D01*
X90016221Y-60170500D01*
X90083260Y-60190185D01*
X90116537Y-60221612D01*
X90164641Y-60287821D01*
X90317179Y-60440359D01*
X90491701Y-60567157D01*
X90683911Y-60665092D01*
X90889074Y-60731754D01*
X90968973Y-60744408D01*
X91102134Y-60765500D01*
X91102139Y-60765500D01*
X91317866Y-60765500D01*
X91436230Y-60746752D01*
X91530926Y-60731754D01*
X91736089Y-60665092D01*
X91928299Y-60567157D01*
X92102821Y-60440359D01*
X92245186Y-60297993D01*
X92306505Y-60264511D01*
X92376197Y-60269495D01*
X92432131Y-60311366D01*
X92445248Y-60333277D01*
X92445640Y-60334118D01*
X92537684Y-60483345D01*
X92661654Y-60607315D01*
X92810875Y-60699356D01*
X92810880Y-60699358D01*
X92977302Y-60754505D01*
X92977309Y-60754506D01*
X93080019Y-60764999D01*
X93499999Y-60764999D01*
X93500000Y-60764998D01*
X93500000Y-59712709D01*
X93520339Y-59724452D01*
X93671667Y-59765000D01*
X93828333Y-59765000D01*
X93979661Y-59724452D01*
X94000000Y-59712709D01*
X94000000Y-60764999D01*
X94419972Y-60764999D01*
X94419986Y-60764998D01*
X94522697Y-60754505D01*
X94689119Y-60699358D01*
X94689124Y-60699356D01*
X94838345Y-60607315D01*
X94962315Y-60483345D01*
X95054356Y-60334124D01*
X95054358Y-60334119D01*
X95109505Y-60167697D01*
X95109506Y-60167689D01*
X95119999Y-60064979D01*
X95120000Y-60064973D01*
X95120000Y-59420000D01*
X94292709Y-59420000D01*
X94304452Y-59399661D01*
X94345000Y-59248333D01*
X94345000Y-59091667D01*
X94304452Y-58940339D01*
X94292709Y-58920000D01*
X95119999Y-58920000D01*
X95119999Y-58275028D01*
X95119998Y-58275013D01*
X95109505Y-58172301D01*
X95106591Y-58163506D01*
X95104188Y-58093677D01*
X95139919Y-58033635D01*
X95202438Y-58002442D01*
X95224296Y-58000500D01*
X99035958Y-58000500D01*
X99102997Y-58020185D01*
X99123639Y-58036819D01*
X99132179Y-58045359D01*
X99306701Y-58172157D01*
X99498911Y-58270092D01*
X99704074Y-58336754D01*
X99783973Y-58349408D01*
X99917134Y-58370500D01*
X99917139Y-58370500D01*
X100582866Y-58370500D01*
X100701230Y-58351752D01*
X100795926Y-58336754D01*
X101001089Y-58270092D01*
X101193299Y-58172157D01*
X101367821Y-58045359D01*
X101520359Y-57892821D01*
X101647157Y-57718299D01*
X101745092Y-57526089D01*
X101811754Y-57320926D01*
X101827120Y-57223911D01*
X101845500Y-57107866D01*
X101845500Y-56892133D01*
X101820391Y-56733606D01*
X101811754Y-56679074D01*
X101745092Y-56473911D01*
X101647157Y-56281701D01*
X101520359Y-56107179D01*
X101367821Y-55954641D01*
X101196704Y-55830317D01*
X101154040Y-55774988D01*
X101148061Y-55705374D01*
X101180667Y-55643580D01*
X101196702Y-55629684D01*
X101367821Y-55505359D01*
X101520359Y-55352821D01*
X101647157Y-55178299D01*
X101745092Y-54986089D01*
X101811754Y-54780926D01*
X101834007Y-54640425D01*
X101845500Y-54567866D01*
X101845500Y-54352133D01*
X101814337Y-54155382D01*
X101811754Y-54139074D01*
X101745092Y-53933911D01*
X101647157Y-53741701D01*
X101520359Y-53567179D01*
X101377996Y-53424816D01*
X101344511Y-53363493D01*
X101349495Y-53293801D01*
X101391367Y-53237868D01*
X101413289Y-53224745D01*
X101414127Y-53224354D01*
X101563345Y-53132315D01*
X101687315Y-53008345D01*
X101779356Y-52859124D01*
X101779358Y-52859119D01*
X101834505Y-52692697D01*
X101834506Y-52692690D01*
X101844999Y-52589986D01*
X101845000Y-52589973D01*
X101845000Y-52170000D01*
X100792709Y-52170000D01*
X100804452Y-52149661D01*
X100845000Y-51998333D01*
X100845000Y-51841667D01*
X100804452Y-51690339D01*
X100792709Y-51670000D01*
X101844999Y-51670000D01*
X101844999Y-51250028D01*
X101844998Y-51250013D01*
X101834505Y-51147302D01*
X101779358Y-50980880D01*
X101779356Y-50980875D01*
X101687315Y-50831654D01*
X101563345Y-50707684D01*
X101414124Y-50615643D01*
X101414119Y-50615641D01*
X101247697Y-50560494D01*
X101247690Y-50560493D01*
X101144986Y-50550000D01*
X100500000Y-50550000D01*
X100500000Y-51377290D01*
X100479661Y-51365548D01*
X100328333Y-51325000D01*
X100171667Y-51325000D01*
X100020339Y-51365548D01*
X100000000Y-51377290D01*
X100000000Y-50550000D01*
X99355028Y-50550000D01*
X99355012Y-50550001D01*
X99252302Y-50560494D01*
X99085880Y-50615641D01*
X99085875Y-50615643D01*
X98936654Y-50707684D01*
X98812684Y-50831654D01*
X98720643Y-50980875D01*
X98720641Y-50980880D01*
X98665494Y-51147302D01*
X98665493Y-51147309D01*
X98655000Y-51250013D01*
X98655000Y-51670000D01*
X99707291Y-51670000D01*
X99695548Y-51690339D01*
X99655000Y-51841667D01*
X99655000Y-51998333D01*
X99695548Y-52149661D01*
X99707291Y-52170000D01*
X98655001Y-52170000D01*
X98655001Y-52589986D01*
X98665494Y-52692697D01*
X98720641Y-52859119D01*
X98720643Y-52859124D01*
X98812684Y-53008345D01*
X98936654Y-53132315D01*
X99092025Y-53228149D01*
X99090936Y-53229913D01*
X99135657Y-53269289D01*
X99154810Y-53336482D01*
X99134595Y-53403363D01*
X99081431Y-53448699D01*
X99030814Y-53459500D01*
X90425782Y-53459500D01*
X90358743Y-53439815D01*
X90338101Y-53423181D01*
X87873270Y-50958350D01*
X87873250Y-50958328D01*
X87729576Y-50814654D01*
X87729572Y-50814651D01*
X87565711Y-50705162D01*
X87565698Y-50705155D01*
X87439489Y-50652878D01*
X87439483Y-50652876D01*
X87431334Y-50649501D01*
X87383627Y-50629740D01*
X87231807Y-50599541D01*
X87228518Y-50598886D01*
X87228515Y-50598886D01*
X87190333Y-50591291D01*
X87190332Y-50591291D01*
X82312884Y-50591291D01*
X82312864Y-50591290D01*
X82306750Y-50591290D01*
X82109669Y-50591290D01*
X82109666Y-50591290D01*
X81916381Y-50629737D01*
X81916373Y-50629739D01*
X81734297Y-50705157D01*
X81734288Y-50705162D01*
X81570428Y-50814650D01*
X81570424Y-50814653D01*
X80269404Y-52115673D01*
X80208081Y-52149158D01*
X80140769Y-52145034D01*
X79993319Y-52093440D01*
X79993317Y-52093439D01*
X79719512Y-52030945D01*
X79719494Y-52030942D01*
X79440431Y-51999500D01*
X79440425Y-51999500D01*
X79159575Y-51999500D01*
X79159568Y-51999500D01*
X78880505Y-52030942D01*
X78880487Y-52030945D01*
X78606682Y-52093439D01*
X78606670Y-52093443D01*
X78341588Y-52186200D01*
X78088557Y-52308053D01*
X77850753Y-52457476D01*
X77631175Y-52632583D01*
X77432583Y-52831175D01*
X77257476Y-53050753D01*
X77108053Y-53288557D01*
X76986200Y-53541588D01*
X76893443Y-53806670D01*
X76893439Y-53806682D01*
X76830945Y-54080487D01*
X76830943Y-54080503D01*
X76823220Y-54149048D01*
X76796154Y-54213462D01*
X76738559Y-54253017D01*
X76668722Y-54255154D01*
X76608815Y-54219196D01*
X76577860Y-54156558D01*
X76576780Y-54149048D01*
X76572124Y-54107737D01*
X76569055Y-54080491D01*
X76506560Y-53806682D01*
X76413801Y-53541592D01*
X76291945Y-53288555D01*
X76142523Y-53050752D01*
X75967416Y-52831175D01*
X75768825Y-52632584D01*
X75762832Y-52627805D01*
X75621379Y-52515000D01*
X75549248Y-52457477D01*
X75311445Y-52308055D01*
X75311442Y-52308053D01*
X75058411Y-52186200D01*
X74793329Y-52093443D01*
X74793317Y-52093439D01*
X74519512Y-52030945D01*
X74519494Y-52030942D01*
X74240431Y-51999500D01*
X74240425Y-51999500D01*
X73959575Y-51999500D01*
X73959568Y-51999500D01*
X73680505Y-52030942D01*
X73680487Y-52030945D01*
X73406687Y-52093438D01*
X73406675Y-52093442D01*
X73259228Y-52145034D01*
X73189449Y-52148595D01*
X73130593Y-52115673D01*
X73127139Y-52112219D01*
X73127139Y-52112218D01*
X72987782Y-51972861D01*
X72987781Y-51972860D01*
X72987780Y-51972859D01*
X72823920Y-51863371D01*
X72823911Y-51863366D01*
X72751315Y-51833296D01*
X72695165Y-51810038D01*
X72641836Y-51787949D01*
X72641832Y-51787948D01*
X72641828Y-51787946D01*
X72545188Y-51768724D01*
X72448544Y-51749500D01*
X72448541Y-51749500D01*
X68930301Y-51749500D01*
X68863262Y-51729815D01*
X68817507Y-51677011D01*
X68812598Y-51664512D01*
X68784814Y-51580665D01*
X68692712Y-51431344D01*
X68568656Y-51307288D01*
X68419335Y-51215186D01*
X68252798Y-51160001D01*
X68252795Y-51160000D01*
X68174654Y-51152017D01*
X68109962Y-51125620D01*
X68084155Y-51097551D01*
X68027139Y-51012219D01*
X68027137Y-51012216D01*
X67884686Y-50869765D01*
X67884655Y-50869736D01*
X67227100Y-50212181D01*
X67193615Y-50150858D01*
X67198599Y-50081166D01*
X67240471Y-50025233D01*
X67305935Y-50000816D01*
X67314781Y-50000500D01*
X104875500Y-50000500D01*
X104942539Y-50020185D01*
G37*
%TD.AperFunction*%
%TD*%
M02*
