%TF.GenerationSoftware,KiCad,Pcbnew,9.0.2*%
%TF.CreationDate,2025-06-20T16:19:37+01:00*%
%TF.ProjectId,FootSw,466f6f74-5377-42e6-9b69-6361645f7063,rev?*%
%TF.SameCoordinates,Original*%
%TF.FileFunction,Copper,L2,Bot*%
%TF.FilePolarity,Positive*%
%FSLAX46Y46*%
G04 Gerber Fmt 4.6, Leading zero omitted, Abs format (unit mm)*
G04 Created by KiCad (PCBNEW 9.0.2) date 2025-06-20 16:19:37*
%MOMM*%
%LPD*%
G01*
G04 APERTURE LIST*
G04 Aperture macros list*
%AMRoundRect*
0 Rectangle with rounded corners*
0 $1 Rounding radius*
0 $2 $3 $4 $5 $6 $7 $8 $9 X,Y pos of 4 corners*
0 Add a 4 corners polygon primitive as box body*
4,1,4,$2,$3,$4,$5,$6,$7,$8,$9,$2,$3,0*
0 Add four circle primitives for the rounded corners*
1,1,$1+$1,$2,$3*
1,1,$1+$1,$4,$5*
1,1,$1+$1,$6,$7*
1,1,$1+$1,$8,$9*
0 Add four rect primitives between the rounded corners*
20,1,$1+$1,$2,$3,$4,$5,0*
20,1,$1+$1,$4,$5,$6,$7,0*
20,1,$1+$1,$6,$7,$8,$9,0*
20,1,$1+$1,$8,$9,$2,$3,0*%
G04 Aperture macros list end*
%TA.AperFunction,ComponentPad*%
%ADD10C,4.000000*%
%TD*%
%TA.AperFunction,ComponentPad*%
%ADD11RoundRect,0.250000X0.620000X0.845000X-0.620000X0.845000X-0.620000X-0.845000X0.620000X-0.845000X0*%
%TD*%
%TA.AperFunction,ComponentPad*%
%ADD12O,1.740000X2.190000*%
%TD*%
%TA.AperFunction,ComponentPad*%
%ADD13RoundRect,0.250000X0.845000X-0.620000X0.845000X0.620000X-0.845000X0.620000X-0.845000X-0.620000X0*%
%TD*%
%TA.AperFunction,ComponentPad*%
%ADD14O,2.190000X1.740000*%
%TD*%
%TA.AperFunction,ComponentPad*%
%ADD15RoundRect,0.250000X-0.620000X-0.845000X0.620000X-0.845000X0.620000X0.845000X-0.620000X0.845000X0*%
%TD*%
%TA.AperFunction,ComponentPad*%
%ADD16C,1.600000*%
%TD*%
%TA.AperFunction,ComponentPad*%
%ADD17RoundRect,0.250000X-0.845000X0.620000X-0.845000X-0.620000X0.845000X-0.620000X0.845000X0.620000X0*%
%TD*%
%TA.AperFunction,Conductor*%
%ADD18C,1.000000*%
%TD*%
G04 APERTURE END LIST*
D10*
%TO.P,SW1,A1,A*%
%TO.N,Net-(R1-Pad1)*%
X77600000Y-54350000D03*
%TO.P,SW1,A2,B*%
%TO.N,Net-(J4-Pin_2)*%
X77600000Y-58850000D03*
%TO.P,SW1,A3,C*%
%TO.N,unconnected-(SW1-C-PadA3)*%
X77600000Y-63350000D03*
%TO.P,SW1,B1,A*%
%TO.N,Net-(J7-Pin_2)*%
X82800000Y-54350000D03*
%TO.P,SW1,B2,B*%
%TO.N,Net-(J1-Pin_3)*%
X82800000Y-58850000D03*
%TO.P,SW1,B3,C*%
%TO.N,Net-(SW1-C-PadB3)*%
X82800000Y-63350000D03*
%TO.P,SW1,C1,A*%
%TO.N,Net-(J7-Pin_3)*%
X88000000Y-54350000D03*
%TO.P,SW1,C2,B*%
%TO.N,Net-(J2-Pin_2)*%
X88000000Y-58850000D03*
%TO.P,SW1,C3,C*%
%TO.N,Net-(SW1-C-PadB3)*%
X88000000Y-63350000D03*
%TD*%
D11*
%TO.P,J4,1,Pin_1*%
%TO.N,Net-(J1-Pin_2)*%
X67500000Y-62980000D03*
D12*
%TO.P,J4,2,Pin_2*%
%TO.N,Net-(J4-Pin_2)*%
X64960000Y-62980000D03*
%TD*%
D13*
%TO.P,J1,1,Pin_1*%
%TO.N,GND*%
X59500000Y-64080000D03*
D14*
%TO.P,J1,2,Pin_2*%
%TO.N,Net-(J1-Pin_2)*%
X59500000Y-61540000D03*
%TO.P,J1,3,Pin_3*%
%TO.N,Net-(J1-Pin_3)*%
X59500000Y-59000000D03*
%TD*%
D15*
%TO.P,J8,1,Pin_1*%
%TO.N,GND*%
X64960000Y-54000000D03*
D12*
%TO.P,J8,2,Pin_2*%
%TO.N,Net-(J4-Pin_2)*%
X67500000Y-54000000D03*
%TD*%
D16*
%TO.P,R1,1*%
%TO.N,Net-(R1-Pad1)*%
X71000000Y-54420000D03*
%TO.P,R1,2*%
%TO.N,Net-(J5-Pin_2)*%
X71000000Y-64580000D03*
%TD*%
D17*
%TO.P,J7,1,Pin_1*%
%TO.N,GND*%
X97500000Y-52920000D03*
D14*
%TO.P,J7,2,Pin_2*%
%TO.N,Net-(J7-Pin_2)*%
X97500000Y-55460000D03*
%TO.P,J7,3,Pin_3*%
%TO.N,Net-(J7-Pin_3)*%
X97500000Y-58000000D03*
%TD*%
D17*
%TO.P,J2,1,Pin_1*%
%TO.N,GND*%
X97480000Y-61920000D03*
D14*
%TO.P,J2,2,Pin_2*%
%TO.N,Net-(J2-Pin_2)*%
X97480000Y-64460000D03*
%TD*%
D13*
%TO.P,J5,1,Pin_1*%
%TO.N,GND*%
X59500000Y-54775000D03*
D14*
%TO.P,J5,2,Pin_2*%
%TO.N,Net-(J5-Pin_2)*%
X59500000Y-52235000D03*
%TD*%
D18*
%TO.N,GND*%
X59500000Y-54775000D02*
X56500000Y-57775000D01*
X56500000Y-57775000D02*
X56500000Y-62700000D01*
X56500000Y-62700000D02*
X57880000Y-64080000D01*
X57880000Y-64080000D02*
X59500000Y-64080000D01*
X97480000Y-61920000D02*
X99276000Y-63716000D01*
X99276000Y-63716000D02*
X99276000Y-65110730D01*
X99276000Y-65110730D02*
X97786730Y-66600000D01*
X62020000Y-66600000D02*
X59500000Y-64080000D01*
X97786730Y-66600000D02*
X62020000Y-66600000D01*
%TO.N,Net-(J7-Pin_2)*%
X82800000Y-54350000D02*
X85501000Y-51649000D01*
X85501000Y-51649000D02*
X93412156Y-51649000D01*
X93412156Y-51649000D02*
X97223156Y-55460000D01*
X97223156Y-55460000D02*
X97500000Y-55460000D01*
%TO.N,Net-(J7-Pin_3)*%
X88000000Y-54350000D02*
X93850000Y-54350000D01*
X93850000Y-54350000D02*
X97500000Y-58000000D01*
%TO.N,Net-(R1-Pad1)*%
X71000000Y-54420000D02*
X77530000Y-54420000D01*
X77530000Y-54420000D02*
X77600000Y-54350000D01*
%TO.N,Net-(J4-Pin_2)*%
X77600000Y-58850000D02*
X70255000Y-58850000D01*
X70255000Y-58850000D02*
X67500000Y-56095000D01*
%TO.N,Net-(SW1-C-PadB3)*%
X82800000Y-63350000D02*
X88000000Y-63350000D01*
%TO.N,Net-(J2-Pin_2)*%
X97480000Y-64460000D02*
X93610000Y-64460000D01*
X93610000Y-64460000D02*
X88000000Y-58850000D01*
%TO.N,GND*%
X97500000Y-52920000D02*
X99296000Y-54716000D01*
X99296000Y-54716000D02*
X99296000Y-60104000D01*
X99296000Y-60104000D02*
X97480000Y-61920000D01*
X59500000Y-54775000D02*
X64185000Y-54775000D01*
X64185000Y-54775000D02*
X64960000Y-54000000D01*
%TO.N,Net-(J4-Pin_2)*%
X64960000Y-58635000D02*
X64960000Y-62980000D01*
X67500000Y-54000000D02*
X67500000Y-56095000D01*
X67500000Y-56095000D02*
X64960000Y-58635000D01*
%TO.N,Net-(J1-Pin_2)*%
X65704000Y-64776000D02*
X67500000Y-62980000D01*
X61073270Y-61540000D02*
X64309270Y-64776000D01*
X59500000Y-61540000D02*
X61073270Y-61540000D01*
X64309270Y-64776000D02*
X65704000Y-64776000D01*
%TD*%
%TA.AperFunction,Conductor*%
%TO.N,GND*%
G36*
X102442539Y-50020185D02*
G01*
X102488294Y-50072989D01*
X102499500Y-50124500D01*
X102499500Y-67375500D01*
X102479815Y-67442539D01*
X102427011Y-67488294D01*
X102375500Y-67499500D01*
X55124500Y-67499500D01*
X55057461Y-67479815D01*
X55011706Y-67427011D01*
X55000500Y-67375500D01*
X55000500Y-58892133D01*
X57904500Y-58892133D01*
X57904500Y-59107866D01*
X57938245Y-59320922D01*
X57938246Y-59320926D01*
X58004908Y-59526089D01*
X58102843Y-59718299D01*
X58229641Y-59892821D01*
X58382179Y-60045359D01*
X58503454Y-60133471D01*
X58553294Y-60169682D01*
X58595959Y-60225012D01*
X58601938Y-60294626D01*
X58569332Y-60356421D01*
X58553294Y-60370318D01*
X58382179Y-60494641D01*
X58382177Y-60494643D01*
X58382176Y-60494643D01*
X58229643Y-60647176D01*
X58229643Y-60647177D01*
X58229641Y-60647179D01*
X58178611Y-60717416D01*
X58102843Y-60821700D01*
X58004909Y-61013908D01*
X57938245Y-61219077D01*
X57904500Y-61432133D01*
X57904500Y-61647866D01*
X57938245Y-61860922D01*
X57938246Y-61860926D01*
X58004908Y-62066089D01*
X58102843Y-62258299D01*
X58229641Y-62432821D01*
X58229643Y-62432823D01*
X58372003Y-62575183D01*
X58405488Y-62636506D01*
X58400504Y-62706198D01*
X58358632Y-62762131D01*
X58336728Y-62775245D01*
X58335885Y-62775637D01*
X58186654Y-62867684D01*
X58062684Y-62991654D01*
X57970643Y-63140875D01*
X57970641Y-63140880D01*
X57915494Y-63307302D01*
X57915493Y-63307309D01*
X57905000Y-63410013D01*
X57905000Y-63830000D01*
X58957291Y-63830000D01*
X58945548Y-63850339D01*
X58905000Y-64001667D01*
X58905000Y-64158333D01*
X58945548Y-64309661D01*
X58957291Y-64330000D01*
X57905001Y-64330000D01*
X57905001Y-64749986D01*
X57915494Y-64852697D01*
X57970641Y-65019119D01*
X57970643Y-65019124D01*
X58062684Y-65168345D01*
X58186654Y-65292315D01*
X58335875Y-65384356D01*
X58335880Y-65384358D01*
X58502302Y-65439505D01*
X58502309Y-65439506D01*
X58605019Y-65449999D01*
X59249999Y-65449999D01*
X59250000Y-65449998D01*
X59250000Y-64622709D01*
X59270339Y-64634452D01*
X59421667Y-64675000D01*
X59578333Y-64675000D01*
X59729661Y-64634452D01*
X59750000Y-64622709D01*
X59750000Y-65449999D01*
X60394972Y-65449999D01*
X60394986Y-65449998D01*
X60497697Y-65439505D01*
X60664119Y-65384358D01*
X60664124Y-65384356D01*
X60813345Y-65292315D01*
X60937315Y-65168345D01*
X61029356Y-65019124D01*
X61029358Y-65019119D01*
X61084505Y-64852697D01*
X61084506Y-64852690D01*
X61094999Y-64749986D01*
X61095000Y-64749973D01*
X61095000Y-64330000D01*
X60042709Y-64330000D01*
X60054452Y-64309661D01*
X60095000Y-64158333D01*
X60095000Y-64001667D01*
X60054452Y-63850339D01*
X60042709Y-63830000D01*
X61094999Y-63830000D01*
X61094999Y-63410028D01*
X61094998Y-63410013D01*
X61084505Y-63307301D01*
X61080009Y-63293732D01*
X61077606Y-63223903D01*
X61113337Y-63163861D01*
X61175857Y-63132668D01*
X61245316Y-63140227D01*
X61285395Y-63167045D01*
X63529005Y-65410655D01*
X63529034Y-65410686D01*
X63671484Y-65553136D01*
X63671488Y-65553139D01*
X63835349Y-65662628D01*
X63835362Y-65662635D01*
X63964103Y-65715961D01*
X63998214Y-65730090D01*
X64017434Y-65738051D01*
X64110485Y-65756560D01*
X64115201Y-65757498D01*
X64210727Y-65776500D01*
X64210729Y-65776500D01*
X65802542Y-65776500D01*
X65820199Y-65772987D01*
X65902785Y-65756560D01*
X65995836Y-65738051D01*
X66049165Y-65715961D01*
X66177914Y-65662632D01*
X66341782Y-65553139D01*
X66481139Y-65413782D01*
X66481139Y-65413780D01*
X66491347Y-65403573D01*
X66491349Y-65403570D01*
X67283101Y-64611818D01*
X67344424Y-64578333D01*
X67370782Y-64575499D01*
X68170002Y-64575499D01*
X68170008Y-64575499D01*
X68272797Y-64564999D01*
X68439334Y-64509814D01*
X68491484Y-64477648D01*
X69699500Y-64477648D01*
X69699500Y-64682351D01*
X69731522Y-64884534D01*
X69794781Y-65079223D01*
X69840192Y-65168345D01*
X69875244Y-65237139D01*
X69887715Y-65261613D01*
X70008028Y-65427213D01*
X70152786Y-65571971D01*
X70277573Y-65662632D01*
X70318390Y-65692287D01*
X70408203Y-65738049D01*
X70500776Y-65785218D01*
X70500778Y-65785218D01*
X70500781Y-65785220D01*
X70604911Y-65819054D01*
X70695465Y-65848477D01*
X70796557Y-65864488D01*
X70897648Y-65880500D01*
X70897649Y-65880500D01*
X71102351Y-65880500D01*
X71102352Y-65880500D01*
X71304534Y-65848477D01*
X71499219Y-65785220D01*
X71681610Y-65692287D01*
X71774590Y-65624732D01*
X71847213Y-65571971D01*
X71847215Y-65571968D01*
X71847219Y-65571966D01*
X71991966Y-65427219D01*
X71991968Y-65427215D01*
X71991971Y-65427213D01*
X72050518Y-65346628D01*
X72112287Y-65261610D01*
X72205220Y-65079219D01*
X72268477Y-64884534D01*
X72300500Y-64682352D01*
X72300500Y-64477648D01*
X72280620Y-64352133D01*
X72268477Y-64275465D01*
X72225870Y-64144336D01*
X72205220Y-64080781D01*
X72205218Y-64080778D01*
X72205218Y-64080776D01*
X72152746Y-63977795D01*
X72112287Y-63898390D01*
X72095300Y-63875009D01*
X71991971Y-63732786D01*
X71847213Y-63588028D01*
X71681613Y-63467715D01*
X71681612Y-63467714D01*
X71681610Y-63467713D01*
X71597420Y-63424816D01*
X71499223Y-63374781D01*
X71304534Y-63311522D01*
X71129995Y-63283878D01*
X71102352Y-63279500D01*
X70897648Y-63279500D01*
X70873329Y-63283351D01*
X70695465Y-63311522D01*
X70500776Y-63374781D01*
X70318386Y-63467715D01*
X70152786Y-63588028D01*
X70008028Y-63732786D01*
X69887715Y-63898386D01*
X69794781Y-64080776D01*
X69731522Y-64275465D01*
X69699500Y-64477648D01*
X68491484Y-64477648D01*
X68588656Y-64417712D01*
X68712712Y-64293656D01*
X68804814Y-64144334D01*
X68859999Y-63977797D01*
X68870500Y-63875009D01*
X68870499Y-62084992D01*
X68859999Y-61982203D01*
X68804814Y-61815666D01*
X68712712Y-61666344D01*
X68588656Y-61542288D01*
X68439334Y-61450186D01*
X68272797Y-61395001D01*
X68272795Y-61395000D01*
X68170010Y-61384500D01*
X66829998Y-61384500D01*
X66829981Y-61384501D01*
X66727203Y-61395000D01*
X66727200Y-61395001D01*
X66560668Y-61450185D01*
X66560663Y-61450187D01*
X66411342Y-61542289D01*
X66287289Y-61666342D01*
X66191395Y-61821813D01*
X66189368Y-61820562D01*
X66150710Y-61864468D01*
X66083517Y-61883620D01*
X66016636Y-61863405D01*
X65971301Y-61810240D01*
X65960500Y-61759624D01*
X65960500Y-59100782D01*
X65980185Y-59033743D01*
X65996819Y-59013101D01*
X66688998Y-58320922D01*
X67412320Y-57597599D01*
X67473641Y-57564116D01*
X67543333Y-57569100D01*
X67587680Y-57597601D01*
X68489127Y-58499048D01*
X69477860Y-59487781D01*
X69477861Y-59487782D01*
X69617218Y-59627139D01*
X69781086Y-59736632D01*
X69887745Y-59780811D01*
X69963164Y-59812051D01*
X70156454Y-59850499D01*
X70156457Y-59850500D01*
X70156459Y-59850500D01*
X70353540Y-59850500D01*
X75228555Y-59850500D01*
X75295594Y-59870185D01*
X75340275Y-59920699D01*
X75408051Y-60061439D01*
X75408055Y-60061445D01*
X75557477Y-60299248D01*
X75688113Y-60463060D01*
X75729360Y-60514783D01*
X75732584Y-60518825D01*
X75931175Y-60717416D01*
X76150752Y-60892523D01*
X76281727Y-60974820D01*
X76313852Y-60995006D01*
X76360143Y-61047341D01*
X76370791Y-61116394D01*
X76342416Y-61180243D01*
X76313852Y-61204994D01*
X76150753Y-61307476D01*
X75931175Y-61482583D01*
X75732583Y-61681175D01*
X75557476Y-61900753D01*
X75408053Y-62138557D01*
X75286200Y-62391588D01*
X75193443Y-62656670D01*
X75193439Y-62656682D01*
X75130945Y-62930487D01*
X75130942Y-62930505D01*
X75099500Y-63209568D01*
X75099500Y-63490431D01*
X75130942Y-63769494D01*
X75130945Y-63769512D01*
X75193439Y-64043317D01*
X75193443Y-64043329D01*
X75286200Y-64308411D01*
X75408053Y-64561442D01*
X75416885Y-64575498D01*
X75557477Y-64799248D01*
X75732584Y-65018825D01*
X75931175Y-65217416D01*
X76150752Y-65392523D01*
X76388555Y-65541945D01*
X76641592Y-65663801D01*
X76790657Y-65715961D01*
X76906670Y-65756556D01*
X76906682Y-65756560D01*
X77180491Y-65819055D01*
X77180497Y-65819055D01*
X77180505Y-65819057D01*
X77366547Y-65840018D01*
X77459569Y-65850499D01*
X77459572Y-65850500D01*
X77459575Y-65850500D01*
X77740428Y-65850500D01*
X77740429Y-65850499D01*
X77883055Y-65834429D01*
X78019494Y-65819057D01*
X78019499Y-65819056D01*
X78019509Y-65819055D01*
X78293318Y-65756560D01*
X78558408Y-65663801D01*
X78811445Y-65541945D01*
X79049248Y-65392523D01*
X79268825Y-65217416D01*
X79467416Y-65018825D01*
X79642523Y-64799248D01*
X79791945Y-64561445D01*
X79913801Y-64308408D01*
X80006560Y-64043318D01*
X80069055Y-63769509D01*
X80069057Y-63769494D01*
X80076780Y-63700952D01*
X80103846Y-63636538D01*
X80161441Y-63596982D01*
X80231278Y-63594845D01*
X80291185Y-63630803D01*
X80322140Y-63693441D01*
X80323220Y-63700952D01*
X80330942Y-63769494D01*
X80330945Y-63769512D01*
X80393439Y-64043317D01*
X80393443Y-64043329D01*
X80486200Y-64308411D01*
X80608053Y-64561442D01*
X80616885Y-64575498D01*
X80757477Y-64799248D01*
X80932584Y-65018825D01*
X81131175Y-65217416D01*
X81350752Y-65392523D01*
X81588555Y-65541945D01*
X81841592Y-65663801D01*
X81990657Y-65715961D01*
X82106670Y-65756556D01*
X82106682Y-65756560D01*
X82380491Y-65819055D01*
X82380497Y-65819055D01*
X82380505Y-65819057D01*
X82566547Y-65840018D01*
X82659569Y-65850499D01*
X82659572Y-65850500D01*
X82659575Y-65850500D01*
X82940428Y-65850500D01*
X82940429Y-65850499D01*
X83083055Y-65834429D01*
X83219494Y-65819057D01*
X83219499Y-65819056D01*
X83219509Y-65819055D01*
X83493318Y-65756560D01*
X83758408Y-65663801D01*
X84011445Y-65541945D01*
X84249248Y-65392523D01*
X84468825Y-65217416D01*
X84667416Y-65018825D01*
X84842523Y-64799248D01*
X84991945Y-64561445D01*
X85059725Y-64420699D01*
X85106547Y-64368839D01*
X85171445Y-64350500D01*
X85628555Y-64350500D01*
X85695594Y-64370185D01*
X85740275Y-64420699D01*
X85808051Y-64561439D01*
X85853928Y-64634452D01*
X85957477Y-64799248D01*
X86132584Y-65018825D01*
X86331175Y-65217416D01*
X86550752Y-65392523D01*
X86788555Y-65541945D01*
X87041592Y-65663801D01*
X87190657Y-65715961D01*
X87306670Y-65756556D01*
X87306682Y-65756560D01*
X87580491Y-65819055D01*
X87580497Y-65819055D01*
X87580505Y-65819057D01*
X87766547Y-65840018D01*
X87859569Y-65850499D01*
X87859572Y-65850500D01*
X87859575Y-65850500D01*
X88140428Y-65850500D01*
X88140429Y-65850499D01*
X88283055Y-65834429D01*
X88419494Y-65819057D01*
X88419499Y-65819056D01*
X88419509Y-65819055D01*
X88693318Y-65756560D01*
X88958408Y-65663801D01*
X89211445Y-65541945D01*
X89449248Y-65392523D01*
X89668825Y-65217416D01*
X89867416Y-65018825D01*
X90042523Y-64799248D01*
X90191945Y-64561445D01*
X90313801Y-64308408D01*
X90406560Y-64043318D01*
X90469055Y-63769509D01*
X90472189Y-63741700D01*
X90484683Y-63630803D01*
X90500500Y-63490425D01*
X90500500Y-63209575D01*
X90483778Y-63061163D01*
X90495832Y-62992342D01*
X90543181Y-62940963D01*
X90610791Y-62923338D01*
X90677197Y-62945064D01*
X90694679Y-62959599D01*
X92829735Y-65094655D01*
X92829764Y-65094686D01*
X92972217Y-65237139D01*
X93136080Y-65346628D01*
X93136086Y-65346632D01*
X93246878Y-65392523D01*
X93318164Y-65422051D01*
X93414812Y-65441275D01*
X93489390Y-65456110D01*
X93511458Y-65460500D01*
X93511459Y-65460500D01*
X93511460Y-65460500D01*
X93708540Y-65460500D01*
X96265958Y-65460500D01*
X96332997Y-65480185D01*
X96353639Y-65496819D01*
X96362179Y-65505359D01*
X96536701Y-65632157D01*
X96728911Y-65730092D01*
X96934074Y-65796754D01*
X97013973Y-65809408D01*
X97147134Y-65830500D01*
X97147139Y-65830500D01*
X97812866Y-65830500D01*
X97931230Y-65811752D01*
X98025926Y-65796754D01*
X98231089Y-65730092D01*
X98423299Y-65632157D01*
X98597821Y-65505359D01*
X98750359Y-65352821D01*
X98877157Y-65178299D01*
X98975092Y-64986089D01*
X99041754Y-64780926D01*
X99068538Y-64611818D01*
X99075500Y-64567866D01*
X99075500Y-64352133D01*
X99042587Y-64144334D01*
X99041754Y-64139074D01*
X98975092Y-63933911D01*
X98877157Y-63741701D01*
X98750359Y-63567179D01*
X98607996Y-63424816D01*
X98574511Y-63363493D01*
X98579495Y-63293801D01*
X98621367Y-63237868D01*
X98643289Y-63224745D01*
X98644127Y-63224354D01*
X98793345Y-63132315D01*
X98917315Y-63008345D01*
X99009356Y-62859124D01*
X99009358Y-62859119D01*
X99064505Y-62692697D01*
X99064506Y-62692690D01*
X99074999Y-62589986D01*
X99075000Y-62589973D01*
X99075000Y-62170000D01*
X98022709Y-62170000D01*
X98034452Y-62149661D01*
X98075000Y-61998333D01*
X98075000Y-61841667D01*
X98034452Y-61690339D01*
X98022709Y-61670000D01*
X99074999Y-61670000D01*
X99074999Y-61250028D01*
X99074998Y-61250013D01*
X99064505Y-61147302D01*
X99009358Y-60980880D01*
X99009356Y-60980875D01*
X98917315Y-60831654D01*
X98793345Y-60707684D01*
X98644124Y-60615643D01*
X98644119Y-60615641D01*
X98477697Y-60560494D01*
X98477690Y-60560493D01*
X98374986Y-60550000D01*
X97730000Y-60550000D01*
X97730000Y-61377290D01*
X97709661Y-61365548D01*
X97558333Y-61325000D01*
X97401667Y-61325000D01*
X97250339Y-61365548D01*
X97230000Y-61377290D01*
X97230000Y-60550000D01*
X96585028Y-60550000D01*
X96585012Y-60550001D01*
X96482302Y-60560494D01*
X96315880Y-60615641D01*
X96315875Y-60615643D01*
X96166654Y-60707684D01*
X96042684Y-60831654D01*
X95950643Y-60980875D01*
X95950641Y-60980880D01*
X95895494Y-61147302D01*
X95895493Y-61147309D01*
X95885000Y-61250013D01*
X95885000Y-61670000D01*
X96937291Y-61670000D01*
X96925548Y-61690339D01*
X96885000Y-61841667D01*
X96885000Y-61998333D01*
X96925548Y-62149661D01*
X96937291Y-62170000D01*
X95885001Y-62170000D01*
X95885001Y-62589986D01*
X95895494Y-62692697D01*
X95950641Y-62859119D01*
X95950643Y-62859124D01*
X96042684Y-63008345D01*
X96166654Y-63132315D01*
X96322025Y-63228149D01*
X96320936Y-63229913D01*
X96365657Y-63269289D01*
X96384810Y-63336482D01*
X96364595Y-63403363D01*
X96311431Y-63448699D01*
X96260814Y-63459500D01*
X94075782Y-63459500D01*
X94008743Y-63439815D01*
X93988101Y-63423181D01*
X90384324Y-59819404D01*
X90350839Y-59758081D01*
X90354963Y-59690771D01*
X90406560Y-59543318D01*
X90469055Y-59269509D01*
X90476780Y-59200952D01*
X90500499Y-58990431D01*
X90500500Y-58990427D01*
X90500500Y-58709572D01*
X90500499Y-58709568D01*
X90469057Y-58430505D01*
X90469054Y-58430487D01*
X90466780Y-58420526D01*
X90406560Y-58156682D01*
X90389237Y-58107177D01*
X90335863Y-57954643D01*
X90313801Y-57891592D01*
X90191945Y-57638555D01*
X90042523Y-57400752D01*
X89867416Y-57181175D01*
X89668825Y-56982584D01*
X89449248Y-56807477D01*
X89286146Y-56704992D01*
X89239856Y-56652659D01*
X89229208Y-56583606D01*
X89257583Y-56519757D01*
X89286145Y-56495007D01*
X89449248Y-56392523D01*
X89668825Y-56217416D01*
X89867416Y-56018825D01*
X90042523Y-55799248D01*
X90191945Y-55561445D01*
X90251723Y-55437315D01*
X90259725Y-55420699D01*
X90306547Y-55368839D01*
X90371445Y-55350500D01*
X93384218Y-55350500D01*
X93451257Y-55370185D01*
X93471899Y-55386819D01*
X95869766Y-57784687D01*
X95903251Y-57846010D01*
X95904430Y-57887241D01*
X95904882Y-57887277D01*
X95904551Y-57891473D01*
X95904560Y-57891757D01*
X95904500Y-57892136D01*
X95904500Y-58107866D01*
X95932033Y-58281700D01*
X95938246Y-58320926D01*
X96004908Y-58526089D01*
X96102843Y-58718299D01*
X96229641Y-58892821D01*
X96382179Y-59045359D01*
X96556701Y-59172157D01*
X96748911Y-59270092D01*
X96954074Y-59336754D01*
X97033973Y-59349408D01*
X97167134Y-59370500D01*
X97167139Y-59370500D01*
X97832866Y-59370500D01*
X97951230Y-59351752D01*
X98045926Y-59336754D01*
X98251089Y-59270092D01*
X98443299Y-59172157D01*
X98617821Y-59045359D01*
X98770359Y-58892821D01*
X98897157Y-58718299D01*
X98995092Y-58526089D01*
X99061754Y-58320926D01*
X99076752Y-58226230D01*
X99095500Y-58107866D01*
X99095500Y-57892133D01*
X99061754Y-57679077D01*
X99061754Y-57679074D01*
X98995092Y-57473911D01*
X98897157Y-57281701D01*
X98770359Y-57107179D01*
X98617821Y-56954641D01*
X98446704Y-56830317D01*
X98404040Y-56774988D01*
X98398061Y-56705374D01*
X98430667Y-56643580D01*
X98446702Y-56629684D01*
X98617821Y-56505359D01*
X98770359Y-56352821D01*
X98897157Y-56178299D01*
X98995092Y-55986089D01*
X99061754Y-55780926D01*
X99081608Y-55655575D01*
X99095500Y-55567866D01*
X99095500Y-55352133D01*
X99073002Y-55210095D01*
X99061754Y-55139074D01*
X98995092Y-54933911D01*
X98897157Y-54741701D01*
X98770359Y-54567179D01*
X98627996Y-54424816D01*
X98594511Y-54363493D01*
X98599495Y-54293801D01*
X98641367Y-54237868D01*
X98663289Y-54224745D01*
X98664127Y-54224354D01*
X98813345Y-54132315D01*
X98937315Y-54008345D01*
X99029356Y-53859124D01*
X99029358Y-53859119D01*
X99084505Y-53692697D01*
X99084506Y-53692690D01*
X99094999Y-53589986D01*
X99095000Y-53589973D01*
X99095000Y-53170000D01*
X98042709Y-53170000D01*
X98054452Y-53149661D01*
X98095000Y-52998333D01*
X98095000Y-52841667D01*
X98054452Y-52690339D01*
X98042709Y-52670000D01*
X99094999Y-52670000D01*
X99094999Y-52250028D01*
X99094998Y-52250013D01*
X99084505Y-52147302D01*
X99029358Y-51980880D01*
X99029356Y-51980875D01*
X98937315Y-51831654D01*
X98813345Y-51707684D01*
X98664124Y-51615643D01*
X98664119Y-51615641D01*
X98497697Y-51560494D01*
X98497690Y-51560493D01*
X98394986Y-51550000D01*
X97750000Y-51550000D01*
X97750000Y-52377290D01*
X97729661Y-52365548D01*
X97578333Y-52325000D01*
X97421667Y-52325000D01*
X97270339Y-52365548D01*
X97250000Y-52377290D01*
X97250000Y-51550000D01*
X96605028Y-51550000D01*
X96605012Y-51550001D01*
X96502302Y-51560494D01*
X96335880Y-51615641D01*
X96335875Y-51615643D01*
X96186654Y-51707684D01*
X96062684Y-51831654D01*
X95970643Y-51980875D01*
X95970641Y-51980880D01*
X95915494Y-52147302D01*
X95915493Y-52147309D01*
X95905000Y-52250013D01*
X95905000Y-52427562D01*
X95885315Y-52494601D01*
X95832511Y-52540356D01*
X95763353Y-52550300D01*
X95699797Y-52521275D01*
X95693319Y-52515243D01*
X94193635Y-51015559D01*
X94193615Y-51015537D01*
X94049941Y-50871863D01*
X94049937Y-50871860D01*
X93886076Y-50762371D01*
X93886067Y-50762366D01*
X93813471Y-50732296D01*
X93757321Y-50709038D01*
X93703992Y-50686949D01*
X93703988Y-50686948D01*
X93703984Y-50686946D01*
X93607344Y-50667724D01*
X93510700Y-50648500D01*
X93510697Y-50648500D01*
X85402459Y-50648500D01*
X85402455Y-50648500D01*
X85305812Y-50667724D01*
X85209167Y-50686947D01*
X85209161Y-50686949D01*
X85155834Y-50709037D01*
X85155834Y-50709038D01*
X85110315Y-50727892D01*
X85027089Y-50762366D01*
X85027079Y-50762371D01*
X84863219Y-50871859D01*
X84793540Y-50941538D01*
X84723861Y-51011218D01*
X84723858Y-51011221D01*
X83769404Y-51965674D01*
X83708081Y-51999159D01*
X83640769Y-51995035D01*
X83493318Y-51943440D01*
X83493312Y-51943438D01*
X83219512Y-51880945D01*
X83219494Y-51880942D01*
X82940431Y-51849500D01*
X82940425Y-51849500D01*
X82659575Y-51849500D01*
X82659568Y-51849500D01*
X82380505Y-51880942D01*
X82380487Y-51880945D01*
X82106682Y-51943439D01*
X82106670Y-51943443D01*
X81841588Y-52036200D01*
X81588557Y-52158053D01*
X81350753Y-52307476D01*
X81131175Y-52482583D01*
X80932583Y-52681175D01*
X80757476Y-52900753D01*
X80608053Y-53138557D01*
X80486200Y-53391588D01*
X80393443Y-53656670D01*
X80393439Y-53656682D01*
X80330945Y-53930487D01*
X80330943Y-53930503D01*
X80323220Y-53999048D01*
X80296154Y-54063462D01*
X80238559Y-54103017D01*
X80168722Y-54105154D01*
X80108815Y-54069196D01*
X80077860Y-54006558D01*
X80076780Y-53999048D01*
X80069056Y-53930503D01*
X80069055Y-53930491D01*
X80006560Y-53656682D01*
X79913801Y-53391592D01*
X79791945Y-53138555D01*
X79642523Y-52900752D01*
X79467416Y-52681175D01*
X79268825Y-52482584D01*
X79253851Y-52470643D01*
X79170911Y-52404500D01*
X79049248Y-52307477D01*
X78811445Y-52158055D01*
X78811442Y-52158053D01*
X78558411Y-52036200D01*
X78293329Y-51943443D01*
X78293317Y-51943439D01*
X78019512Y-51880945D01*
X78019494Y-51880942D01*
X77740431Y-51849500D01*
X77740425Y-51849500D01*
X77459575Y-51849500D01*
X77459568Y-51849500D01*
X77180505Y-51880942D01*
X77180487Y-51880945D01*
X76906682Y-51943439D01*
X76906670Y-51943443D01*
X76641588Y-52036200D01*
X76388557Y-52158053D01*
X76150753Y-52307476D01*
X75931175Y-52482583D01*
X75732583Y-52681175D01*
X75557476Y-52900753D01*
X75408053Y-53138557D01*
X75306564Y-53349302D01*
X75259741Y-53401161D01*
X75194844Y-53419500D01*
X71875762Y-53419500D01*
X71808723Y-53399815D01*
X71802877Y-53395818D01*
X71797060Y-53391592D01*
X71681610Y-53307713D01*
X71624653Y-53278691D01*
X71499223Y-53214781D01*
X71304534Y-53151522D01*
X71129995Y-53123878D01*
X71102352Y-53119500D01*
X70897648Y-53119500D01*
X70873329Y-53123351D01*
X70695465Y-53151522D01*
X70500776Y-53214781D01*
X70318386Y-53307715D01*
X70152786Y-53428028D01*
X70008028Y-53572786D01*
X69887715Y-53738386D01*
X69794781Y-53920776D01*
X69731522Y-54115465D01*
X69704221Y-54287843D01*
X69699500Y-54317648D01*
X69699500Y-54522352D01*
X69703141Y-54545339D01*
X69731522Y-54724534D01*
X69794781Y-54919223D01*
X69838315Y-55004661D01*
X69884441Y-55095189D01*
X69887715Y-55101613D01*
X70008028Y-55267213D01*
X70152786Y-55411971D01*
X70307749Y-55524556D01*
X70318390Y-55532287D01*
X70434607Y-55591503D01*
X70500776Y-55625218D01*
X70500778Y-55625218D01*
X70500781Y-55625220D01*
X70594204Y-55655575D01*
X70695465Y-55688477D01*
X70796557Y-55704488D01*
X70897648Y-55720500D01*
X70897649Y-55720500D01*
X71102351Y-55720500D01*
X71102352Y-55720500D01*
X71304534Y-55688477D01*
X71499219Y-55625220D01*
X71681610Y-55532287D01*
X71802877Y-55444181D01*
X71868683Y-55420702D01*
X71875762Y-55420500D01*
X75262265Y-55420500D01*
X75329304Y-55440185D01*
X75373985Y-55490699D01*
X75408051Y-55561439D01*
X75422545Y-55584506D01*
X75557477Y-55799248D01*
X75608593Y-55863345D01*
X75707455Y-55987315D01*
X75732584Y-56018825D01*
X75931175Y-56217416D01*
X76150752Y-56392523D01*
X76281727Y-56474820D01*
X76313852Y-56495006D01*
X76360143Y-56547341D01*
X76370791Y-56616394D01*
X76342416Y-56680243D01*
X76313852Y-56704994D01*
X76150753Y-56807476D01*
X75931175Y-56982583D01*
X75732583Y-57181175D01*
X75557476Y-57400753D01*
X75408051Y-57638560D01*
X75340275Y-57779301D01*
X75293453Y-57831161D01*
X75228555Y-57849500D01*
X70720783Y-57849500D01*
X70653744Y-57829815D01*
X70633102Y-57813181D01*
X68536819Y-55716898D01*
X68503334Y-55655575D01*
X68500500Y-55629217D01*
X68500500Y-55214042D01*
X68520185Y-55147003D01*
X68536819Y-55126361D01*
X68545359Y-55117821D01*
X68672157Y-54943299D01*
X68770092Y-54751089D01*
X68836754Y-54545926D01*
X68855936Y-54424816D01*
X68870500Y-54332866D01*
X68870500Y-53667133D01*
X68844834Y-53505092D01*
X68836754Y-53454074D01*
X68770092Y-53248911D01*
X68672157Y-53056701D01*
X68545359Y-52882179D01*
X68392821Y-52729641D01*
X68218299Y-52602843D01*
X68026089Y-52504908D01*
X67820926Y-52438246D01*
X67820924Y-52438245D01*
X67820922Y-52438245D01*
X67607866Y-52404500D01*
X67607861Y-52404500D01*
X67392139Y-52404500D01*
X67392134Y-52404500D01*
X67179077Y-52438245D01*
X66973908Y-52504909D01*
X66781700Y-52602843D01*
X66607180Y-52729640D01*
X66464816Y-52872004D01*
X66403493Y-52905488D01*
X66333801Y-52900504D01*
X66277868Y-52858632D01*
X66264748Y-52836716D01*
X66264356Y-52835876D01*
X66172315Y-52686654D01*
X66048345Y-52562684D01*
X65899124Y-52470643D01*
X65899119Y-52470641D01*
X65732697Y-52415494D01*
X65732690Y-52415493D01*
X65629986Y-52405000D01*
X65210000Y-52405000D01*
X65210000Y-53457290D01*
X65189661Y-53445548D01*
X65038333Y-53405000D01*
X64881667Y-53405000D01*
X64730339Y-53445548D01*
X64710000Y-53457290D01*
X64710000Y-52405000D01*
X64290028Y-52405000D01*
X64290012Y-52405001D01*
X64187302Y-52415494D01*
X64020880Y-52470641D01*
X64020875Y-52470643D01*
X63871654Y-52562684D01*
X63747684Y-52686654D01*
X63655643Y-52835875D01*
X63655641Y-52835880D01*
X63600494Y-53002302D01*
X63600493Y-53002309D01*
X63590000Y-53105013D01*
X63590000Y-53750000D01*
X64417291Y-53750000D01*
X64405548Y-53770339D01*
X64365000Y-53921667D01*
X64365000Y-54078333D01*
X64405548Y-54229661D01*
X64417291Y-54250000D01*
X63590001Y-54250000D01*
X63590001Y-54894986D01*
X63600494Y-54997697D01*
X63655641Y-55164119D01*
X63655643Y-55164124D01*
X63747684Y-55313345D01*
X63871654Y-55437315D01*
X64020875Y-55529356D01*
X64020880Y-55529358D01*
X64187302Y-55584505D01*
X64187309Y-55584506D01*
X64290019Y-55594999D01*
X64709999Y-55594999D01*
X64710000Y-55594998D01*
X64710000Y-54542709D01*
X64730339Y-54554452D01*
X64881667Y-54595000D01*
X65038333Y-54595000D01*
X65189661Y-54554452D01*
X65210000Y-54542709D01*
X65210000Y-55594999D01*
X65629972Y-55594999D01*
X65629986Y-55594998D01*
X65732697Y-55584505D01*
X65899119Y-55529358D01*
X65899124Y-55529356D01*
X66048345Y-55437315D01*
X66172315Y-55313345D01*
X66268149Y-55157975D01*
X66269915Y-55159064D01*
X66309278Y-55114349D01*
X66376470Y-55095189D01*
X66443353Y-55115397D01*
X66488694Y-55168557D01*
X66499500Y-55219185D01*
X66499500Y-55629217D01*
X66479815Y-55696256D01*
X66463181Y-55716898D01*
X64322220Y-57857859D01*
X64322218Y-57857861D01*
X64252538Y-57927540D01*
X64182859Y-57997219D01*
X64073371Y-58161079D01*
X64073364Y-58161092D01*
X64035987Y-58251330D01*
X64035984Y-58251338D01*
X64033834Y-58256530D01*
X63997949Y-58343164D01*
X63982561Y-58420526D01*
X63981284Y-58426942D01*
X63981282Y-58426951D01*
X63959500Y-58536456D01*
X63959500Y-61765958D01*
X63939815Y-61832997D01*
X63923181Y-61853639D01*
X63914643Y-61862176D01*
X63914643Y-61862177D01*
X63914641Y-61862179D01*
X63860186Y-61937129D01*
X63787843Y-62036700D01*
X63689909Y-62228906D01*
X63626677Y-62423513D01*
X63587239Y-62481188D01*
X63522880Y-62508386D01*
X63454034Y-62496471D01*
X63421065Y-62472875D01*
X61854749Y-60906559D01*
X61854729Y-60906537D01*
X61711055Y-60762863D01*
X61711051Y-60762860D01*
X61547190Y-60653371D01*
X61547181Y-60653366D01*
X61425410Y-60602927D01*
X61425408Y-60602926D01*
X61418435Y-60600038D01*
X61365106Y-60577949D01*
X61265640Y-60558164D01*
X61261093Y-60557259D01*
X61261084Y-60557257D01*
X61171813Y-60539500D01*
X61171811Y-60539500D01*
X60714042Y-60539500D01*
X60647003Y-60519815D01*
X60639753Y-60514783D01*
X60632642Y-60509462D01*
X60617821Y-60494641D01*
X60446005Y-60369809D01*
X60445302Y-60369283D01*
X60424866Y-60341996D01*
X60404040Y-60314988D01*
X60403962Y-60314084D01*
X60403418Y-60313358D01*
X60400975Y-60279308D01*
X60398061Y-60245374D01*
X60398483Y-60244572D01*
X60398419Y-60243668D01*
X60414763Y-60213718D01*
X60430667Y-60183580D01*
X60431702Y-60182682D01*
X60431891Y-60182337D01*
X60432460Y-60182025D01*
X60446702Y-60169684D01*
X60617821Y-60045359D01*
X60770359Y-59892821D01*
X60897157Y-59718299D01*
X60995092Y-59526089D01*
X61061754Y-59320926D01*
X61085317Y-59172156D01*
X61095500Y-59107866D01*
X61095500Y-58892133D01*
X61073002Y-58750095D01*
X61061754Y-58679074D01*
X60995092Y-58473911D01*
X60897157Y-58281701D01*
X60770359Y-58107179D01*
X60617821Y-57954641D01*
X60443299Y-57827843D01*
X60251089Y-57729908D01*
X60045926Y-57663246D01*
X60045924Y-57663245D01*
X60045922Y-57663245D01*
X59832866Y-57629500D01*
X59832861Y-57629500D01*
X59167139Y-57629500D01*
X59167134Y-57629500D01*
X58954077Y-57663245D01*
X58748908Y-57729909D01*
X58556700Y-57827843D01*
X58468205Y-57892139D01*
X58382179Y-57954641D01*
X58382177Y-57954643D01*
X58382176Y-57954643D01*
X58229643Y-58107176D01*
X58229643Y-58107177D01*
X58229641Y-58107179D01*
X58229142Y-58107866D01*
X58102843Y-58281700D01*
X58004909Y-58473908D01*
X57938245Y-58679077D01*
X57904500Y-58892133D01*
X55000500Y-58892133D01*
X55000500Y-52127133D01*
X57904500Y-52127133D01*
X57904500Y-52342866D01*
X57938245Y-52555922D01*
X57938246Y-52555926D01*
X57994690Y-52729643D01*
X58004909Y-52761091D01*
X58066604Y-52882176D01*
X58102843Y-52953299D01*
X58229641Y-53127821D01*
X58229643Y-53127823D01*
X58372003Y-53270183D01*
X58405488Y-53331506D01*
X58400504Y-53401198D01*
X58358632Y-53457131D01*
X58336728Y-53470245D01*
X58335885Y-53470637D01*
X58186654Y-53562684D01*
X58062684Y-53686654D01*
X57970643Y-53835875D01*
X57970641Y-53835880D01*
X57915494Y-54002302D01*
X57915493Y-54002309D01*
X57905000Y-54105013D01*
X57905000Y-54525000D01*
X58957291Y-54525000D01*
X58945548Y-54545339D01*
X58905000Y-54696667D01*
X58905000Y-54853333D01*
X58945548Y-55004661D01*
X58957291Y-55025000D01*
X57905001Y-55025000D01*
X57905001Y-55444986D01*
X57915494Y-55547697D01*
X57970641Y-55714119D01*
X57970643Y-55714124D01*
X58062684Y-55863345D01*
X58186654Y-55987315D01*
X58335875Y-56079356D01*
X58335880Y-56079358D01*
X58502302Y-56134505D01*
X58502309Y-56134506D01*
X58605019Y-56144999D01*
X59249999Y-56144999D01*
X59250000Y-56144998D01*
X59250000Y-55317709D01*
X59270339Y-55329452D01*
X59421667Y-55370000D01*
X59578333Y-55370000D01*
X59729661Y-55329452D01*
X59750000Y-55317709D01*
X59750000Y-56144999D01*
X60394972Y-56144999D01*
X60394986Y-56144998D01*
X60497697Y-56134505D01*
X60664119Y-56079358D01*
X60664124Y-56079356D01*
X60813345Y-55987315D01*
X60937315Y-55863345D01*
X61029356Y-55714124D01*
X61029358Y-55714119D01*
X61084505Y-55547697D01*
X61084506Y-55547690D01*
X61094999Y-55444986D01*
X61095000Y-55444973D01*
X61095000Y-55025000D01*
X60042709Y-55025000D01*
X60054452Y-55004661D01*
X60095000Y-54853333D01*
X60095000Y-54696667D01*
X60054452Y-54545339D01*
X60042709Y-54525000D01*
X61094999Y-54525000D01*
X61094999Y-54105028D01*
X61094998Y-54105013D01*
X61084505Y-54002302D01*
X61029358Y-53835880D01*
X61029356Y-53835875D01*
X60937315Y-53686654D01*
X60813345Y-53562684D01*
X60664118Y-53470640D01*
X60663277Y-53470248D01*
X60662796Y-53469824D01*
X60657975Y-53466851D01*
X60658483Y-53466027D01*
X60610836Y-53424078D01*
X60591681Y-53356885D01*
X60611894Y-53290003D01*
X60627987Y-53270192D01*
X60770359Y-53127821D01*
X60897157Y-52953299D01*
X60995092Y-52761089D01*
X61061754Y-52555926D01*
X61083996Y-52415494D01*
X61095500Y-52342866D01*
X61095500Y-52127133D01*
X61072334Y-51980875D01*
X61061754Y-51914074D01*
X60995092Y-51708911D01*
X60897157Y-51516701D01*
X60770359Y-51342179D01*
X60617821Y-51189641D01*
X60443299Y-51062843D01*
X60251089Y-50964908D01*
X60045926Y-50898246D01*
X60045924Y-50898245D01*
X60045922Y-50898245D01*
X59832866Y-50864500D01*
X59832861Y-50864500D01*
X59167139Y-50864500D01*
X59167134Y-50864500D01*
X58954077Y-50898245D01*
X58748908Y-50964909D01*
X58556700Y-51062843D01*
X58457129Y-51135186D01*
X58382179Y-51189641D01*
X58382177Y-51189643D01*
X58382176Y-51189643D01*
X58229643Y-51342176D01*
X58229643Y-51342177D01*
X58229641Y-51342179D01*
X58175186Y-51417129D01*
X58102843Y-51516700D01*
X58004909Y-51708908D01*
X57938245Y-51914077D01*
X57904500Y-52127133D01*
X55000500Y-52127133D01*
X55000500Y-50124500D01*
X55020185Y-50057461D01*
X55072989Y-50011706D01*
X55124500Y-50000500D01*
X102375500Y-50000500D01*
X102442539Y-50020185D01*
G37*
%TD.AperFunction*%
%TD*%
M02*
