%TF.GenerationSoftware,KiCad,Pcbnew,9.0.2*%
%TF.CreationDate,2025-06-20T16:19:37+01:00*%
%TF.ProjectId,FootSw,466f6f74-5377-42e6-9b69-6361645f7063,rev?*%
%TF.SameCoordinates,Original*%
%TF.FileFunction,Copper,L1,Top*%
%TF.FilePolarity,Positive*%
%FSLAX46Y46*%
G04 Gerber Fmt 4.6, Leading zero omitted, Abs format (unit mm)*
G04 Created by KiCad (PCBNEW 9.0.2) date 2025-06-20 16:19:37*
%MOMM*%
%LPD*%
G01*
G04 APERTURE LIST*
G04 Aperture macros list*
%AMRoundRect*
0 Rectangle with rounded corners*
0 $1 Rounding radius*
0 $2 $3 $4 $5 $6 $7 $8 $9 X,Y pos of 4 corners*
0 Add a 4 corners polygon primitive as box body*
4,1,4,$2,$3,$4,$5,$6,$7,$8,$9,$2,$3,0*
0 Add four circle primitives for the rounded corners*
1,1,$1+$1,$2,$3*
1,1,$1+$1,$4,$5*
1,1,$1+$1,$6,$7*
1,1,$1+$1,$8,$9*
0 Add four rect primitives between the rounded corners*
20,1,$1+$1,$2,$3,$4,$5,0*
20,1,$1+$1,$4,$5,$6,$7,0*
20,1,$1+$1,$6,$7,$8,$9,0*
20,1,$1+$1,$8,$9,$2,$3,0*%
G04 Aperture macros list end*
%TA.AperFunction,ComponentPad*%
%ADD10C,4.000000*%
%TD*%
%TA.AperFunction,ComponentPad*%
%ADD11RoundRect,0.250000X0.620000X0.845000X-0.620000X0.845000X-0.620000X-0.845000X0.620000X-0.845000X0*%
%TD*%
%TA.AperFunction,ComponentPad*%
%ADD12O,1.740000X2.190000*%
%TD*%
%TA.AperFunction,ComponentPad*%
%ADD13RoundRect,0.250000X0.845000X-0.620000X0.845000X0.620000X-0.845000X0.620000X-0.845000X-0.620000X0*%
%TD*%
%TA.AperFunction,ComponentPad*%
%ADD14O,2.190000X1.740000*%
%TD*%
%TA.AperFunction,ComponentPad*%
%ADD15RoundRect,0.250000X-0.620000X-0.845000X0.620000X-0.845000X0.620000X0.845000X-0.620000X0.845000X0*%
%TD*%
%TA.AperFunction,ComponentPad*%
%ADD16C,1.600000*%
%TD*%
%TA.AperFunction,ComponentPad*%
%ADD17RoundRect,0.250000X-0.845000X0.620000X-0.845000X-0.620000X0.845000X-0.620000X0.845000X0.620000X0*%
%TD*%
%TA.AperFunction,Conductor*%
%ADD18C,0.500000*%
%TD*%
%TA.AperFunction,Conductor*%
%ADD19C,1.000000*%
%TD*%
G04 APERTURE END LIST*
D10*
%TO.P,SW1,A1,A*%
%TO.N,Net-(R1-Pad1)*%
X77600000Y-54350000D03*
%TO.P,SW1,A2,B*%
%TO.N,Net-(J4-Pin_2)*%
X77600000Y-58850000D03*
%TO.P,SW1,A3,C*%
%TO.N,unconnected-(SW1-C-PadA3)*%
X77600000Y-63350000D03*
%TO.P,SW1,B1,A*%
%TO.N,Net-(J7-Pin_2)*%
X82800000Y-54350000D03*
%TO.P,SW1,B2,B*%
%TO.N,Net-(J1-Pin_3)*%
X82800000Y-58850000D03*
%TO.P,SW1,B3,C*%
%TO.N,Net-(SW1-C-PadB3)*%
X82800000Y-63350000D03*
%TO.P,SW1,C1,A*%
%TO.N,Net-(J7-Pin_3)*%
X88000000Y-54350000D03*
%TO.P,SW1,C2,B*%
%TO.N,Net-(J2-Pin_2)*%
X88000000Y-58850000D03*
%TO.P,SW1,C3,C*%
%TO.N,Net-(SW1-C-PadB3)*%
X88000000Y-63350000D03*
%TD*%
D11*
%TO.P,J4,1,Pin_1*%
%TO.N,Net-(J1-Pin_2)*%
X67500000Y-62980000D03*
D12*
%TO.P,J4,2,Pin_2*%
%TO.N,Net-(J4-Pin_2)*%
X64960000Y-62980000D03*
%TD*%
D13*
%TO.P,J1,1,Pin_1*%
%TO.N,GND*%
X59500000Y-64080000D03*
D14*
%TO.P,J1,2,Pin_2*%
%TO.N,Net-(J1-Pin_2)*%
X59500000Y-61540000D03*
%TO.P,J1,3,Pin_3*%
%TO.N,Net-(J1-Pin_3)*%
X59500000Y-59000000D03*
%TD*%
D15*
%TO.P,J8,1,Pin_1*%
%TO.N,GND*%
X64960000Y-54000000D03*
D12*
%TO.P,J8,2,Pin_2*%
%TO.N,Net-(J4-Pin_2)*%
X67500000Y-54000000D03*
%TD*%
D16*
%TO.P,R1,1*%
%TO.N,Net-(R1-Pad1)*%
X71000000Y-54420000D03*
%TO.P,R1,2*%
%TO.N,Net-(J5-Pin_2)*%
X71000000Y-64580000D03*
%TD*%
D17*
%TO.P,J7,1,Pin_1*%
%TO.N,GND*%
X97500000Y-52920000D03*
D14*
%TO.P,J7,2,Pin_2*%
%TO.N,Net-(J7-Pin_2)*%
X97500000Y-55460000D03*
%TO.P,J7,3,Pin_3*%
%TO.N,Net-(J7-Pin_3)*%
X97500000Y-58000000D03*
%TD*%
D17*
%TO.P,J2,1,Pin_1*%
%TO.N,GND*%
X97480000Y-61920000D03*
D14*
%TO.P,J2,2,Pin_2*%
%TO.N,Net-(J2-Pin_2)*%
X97480000Y-64460000D03*
%TD*%
D13*
%TO.P,J5,1,Pin_1*%
%TO.N,GND*%
X59500000Y-54775000D03*
D14*
%TO.P,J5,2,Pin_2*%
%TO.N,Net-(J5-Pin_2)*%
X59500000Y-52235000D03*
%TD*%
D18*
%TO.N,Net-(J1-Pin_3)*%
X82800000Y-58850000D02*
X80200000Y-61450000D01*
X80200000Y-61450000D02*
X80200000Y-65800000D01*
X56000000Y-59500000D02*
X56500000Y-59000000D01*
X56500000Y-59000000D02*
X59500000Y-59000000D01*
X80200000Y-65800000D02*
X79500000Y-66500000D01*
X79500000Y-66500000D02*
X57500000Y-66500000D01*
X57500000Y-66500000D02*
X56000000Y-65000000D01*
X56000000Y-65000000D02*
X56000000Y-59500000D01*
D19*
%TO.N,Net-(J5-Pin_2)*%
X71000000Y-64580000D02*
X71000000Y-63448630D01*
X59786370Y-52235000D02*
X59500000Y-52235000D01*
X71000000Y-63448630D02*
X59786370Y-52235000D01*
%TD*%
M02*
