M48
; DRILL file {KiCad 9.0.0} date 2025-08-04T16:21:33+0100
; FORMAT={-:-/ absolute / inch / decimal}
; #@! TF.CreationDate,2025-08-04T16:21:33+01:00
; #@! TF.GenerationSoftware,Kicad,Pcbnew,9.0.0
; #@! TF.FileFunction,Plated,1,2,PTH
FMAT,2
INCH
; #@! TA.AperFunction,Plated,PTH,ComponentDrill
T1C0.0315
; #@! TA.AperFunction,Plated,PTH,ComponentDrill
T2C0.0433
; #@! TA.AperFunction,Plated,PTH,ComponentDrill
T3C0.0469
; #@! TA.AperFunction,Plated,PTH,ComponentDrill
T4C0.1102
%
G90
G05
T1
X2.5691Y-2.563
X2.6691Y-2.563
T2
X2.5476Y-2.0768
X2.6476Y-2.0768
T3
X2.3425Y-2.0181
X2.3425Y-2.1181
X2.3425Y-2.2677
X2.3425Y-2.3677
X2.3425Y-2.5157
X2.3425Y-2.6157
X2.5575Y-2.3425
X2.6575Y-2.3425
X3.5909Y-2.3295
X3.6909Y-2.3295
X3.9469Y-2.0441
X3.9469Y-2.1441
X3.9469Y-2.2441
X3.9469Y-2.3917
X3.9469Y-2.4917
X3.9469Y-2.5917
T4
X2.9173Y-2.1457
X2.9173Y-2.3228
X2.9173Y-2.5
X3.122Y-2.1457
X3.122Y-2.3228
X3.122Y-2.5
X3.3268Y-2.1457
X3.3268Y-2.3228
X3.3268Y-2.5
M30
